<?xml version="1.0" encoding="utf-8"?>
<!-- Generator: Adobe Illustrator 21.1.0, SVG Export Plug-In . SVG Version: 6.00 Build 0)  -->
<svg version="1.1" id="Layer_1" xmlns="http://www.w3.org/2000/svg" xmlns:xlink="http://www.w3.org/1999/xlink" x="0px" y="0px"
	 viewBox="0 0 792 612" style="enable-background:new 0 0 792 612;" xml:space="preserve">
<style type="text/css">
	.st0{fill:#231F20;}
	.st1{fill:#F5DAA8;}
</style>
<g id="Layer_1_1_">
	<path class="st0" d="M649.5,103.1c-0.9,1.4-1.4,4.2-2.3,4.2c-2.8,0.5-6.1,0.5-9.4,0.5c-406.3,0-46.3,0-452.6,0
		c-3.3,0-6.1,0-9.4-0.5c-0.9,0-0.9-2.8-1.4-4.2C588.3,103.1,235.2,103.1,649.5,103.1z"/>
	<path class="st0" d="M649.5,527.3c-0.9,1.4-1.4,4.2-2.3,4.2c-2.8,0.5-6.1,0.5-9.4,0.5c-406.3,0-46.3,0-452.6,0
		c-3.3,0-6.1,0-9.4-0.5c-0.9,0-0.9-2.8-1.4-4.2C588.3,527.3,235.2,527.3,649.5,527.3z"/>
	<path class="st0" d="M649.1,337.2c-413.8,0-61.3,0-475.1,0c0-0.5,0-1.4,0-1.9c413.8,0,61.3,0,475.1,0
		C649.1,335.8,649.1,336.3,649.1,337.2z"/>
	<path class="st0" d="M376.6,171.6c-3.3-7-5.2-11.7-8.4-18.8c-6.1,19.7-4.7,39.9-11.3,57.7c-1.9-0.5-3.3-0.9-5.2-0.9
		c4.2-25.3,8-51.1,12.2-76.5c0.5,0,1.4-0.5,1.9-0.5c3.8,7,7,14.5,11.3,22.5c3.8-8.4,7-15.5,10.3-23c0.5,0,1.4,0,1.9,0.5
		c4.2,25.8,8.4,51.6,12.2,77.4c-1.4,0.5-2.8,0.5-4.7,0.9c-8-17.4-6.1-37.1-11.7-56.8C382.3,160.3,379.5,165.5,376.6,171.6z"/>
	<path class="st0" d="M359.3,309.5c-1.9-2.8-4.7-5.2-5.6-8.4c-4.7-13.6-9.4-27.2-16-40.4c0,13.1,0,25.8,0,38.9
		c0,2.8-2.3,5.6-3.8,8.4c-1.4-2.8-3.3-5.2-3.3-8c-0.5-20.2-0.5-40.8,0-61.5c0-3.3,1.9-6.1,3.3-9.4c1.4,2.8,2.8,6.1,4.2,8.9
		c0.5,0.9,0.5,1.9,0.9,3.3c8-1.4,8.4-15.5,19.7-11.7c-0.9,1.4-1.4,2.8-2.3,3.8c-12.2,9.9-12.7,21.6-6.1,35.7
		c5.6,12.2,8.9,25.3,13.1,38C361.6,308.1,360.2,309.1,359.3,309.5z"/>
	<path class="st0" d="M311.9,264c0-9.9,0-19.2,0-29.1c0-1.9,1.9-3.8,3.3-5.2c1.4,1.9,3.3,3.3,3.3,5.2c0,20.2,0.5,39.9,0,60.1
		c-0.5,8.4-4.7,14.5-14.1,14.1c-9.9-0.5-13.1-6.6-13.6-15c-0.5-19.2,0-38.5,0-58.2c0-1.9,2.3-4.2,3.3-6.1c0.9,2.3,2.8,4.2,2.8,6.6
		c0.5,16.4,0,32.4,0,48.8c0,2.8-0.9,6.1,0.5,8c1.9,3.3,4.7,6.6,7.5,9.4c2.3-3.3,6.1-6.1,6.6-9.4C312.4,283.7,311.9,273.9,311.9,264
		L311.9,264z"/>
	<path class="st0" d="M638,130.3c6.6,5.2,7.5,72.7,0.5,81.6c-0.9-4.2-1.9-7.5-1.9-10.3c0-12.7-0.9-24.9,0-37.5
		c0.9-11.7-3.3-18.3-16-21.6c0,12.2,0,23.9,0,35.7c0,8.4,0.5,16.4,0,24.9c0,2.3-1.9,5.2-3.3,7.5c-0.9-0.5-1.9-0.5-2.8-0.9
		c0-26.3,0-52.6,0-79.8c7,4.2,13.6,8,20.6,11.7C636.1,137.8,637,134.5,638,130.3z"/>
	<path class="st0" d="M520.2,307.2c5.6-25.3,22.1-49.7,3.8-76.9c14.1-1.4,8,11.3,13.6,14.5c5.2-3.3-0.5-15.5,13.1-14.5
		c-16.9,27.2-0.5,51.6,4.2,77.4c-8,3.3-7.5-3.3-8.9-7c-1.4-5.2-2.8-9.9-4.2-15c-1.4-4.7-2.3-8.9-3.8-15
		c-6.6,13.1-6.1,28.2-13.6,38.9C523.5,308.6,521.6,308.1,520.2,307.2z"/>
	<path class="st0" d="M543.2,130.8c3.8,0,8-0.5,12.7,0c2.3,0.5,4.2,2.3,6.1,3.8c-1.9,0.9-3.8,2.3-5.6,3.3c-2.3,0.5-4.7,0.5-8,0.5
		c0,3.8,0,7.5,0,10.8c5.2,1.4,9.9,2.3,14.5,3.8c0,1.4-0.5,2.3-0.5,3.8c-4.2,0.5-8.4,0.5-14.5,0.9c0,7,0,14.5,0,22.1s0,15,0,22.1
		c1.4,0.9,1.9,1.4,2.8,1.4c3.8,1.4,7.5,2.3,11.7,3.8c-4.2,1.4-8.4,2.8-12.7,3.3c-2.3,0.5-4.7-0.5-8.9-0.5c0-12.7,0.5-25.3,0-38
		c-0.5-6.6-3.8-13.1-3.8-19.7C537.1,145.8,540.4,139.2,543.2,130.8z"/>
	<path class="st0" d="M334.4,141.1c-3.8-3.3-6.1-5.6-8.4-7.5c2.8-0.9,6.1-1.9,9.4-2.8c1.9-0.5,4.2-0.5,6.1,0
		c3.3,0.5,6.1,1.9,8.9,2.8c-2.3,2.3-4.7,4.2-8.4,7.5c0,19.2,0,39.9,0,60.5c0,2.8-2.8,5.6-4.2,8.9c-0.9-2.8-3.3-5.6-3.3-8.4
		C334.4,181,334.4,160.3,334.4,141.1z"/>
	<path class="st0" d="M378.5,301.6c4.7,0.5,8.9,0.9,13.1,1.4c0,1.4,0.5,2.8,0.5,3.8c-6.6,0.9-13.1,1.4-21.6,2.3
		c0-14.1,0.5-26.7,0-39.4c-0.5-6.6-3.8-13.1-3.3-19.7c0.5-6.6,3.8-13.1,5.6-20.2c5.6,0,12.2,0,18.8,0c0,1.4,0.5,2.3,0.5,3.8
		c-4.2,0.9-8.4,1.9-13.6,3.3c0,2.8,0,6.6,0,10.3c4.2,0.9,9.4,2.3,14.1,3.8c0,0.9-0.5,2.3-0.5,3.3c-4.2,0.5-8.4,0.5-13.6,0.9
		C378.5,270.6,378.5,286.1,378.5,301.6z"/>
	<path class="st0" d="M315.6,188.5c-1.9-4.2-5.2-10.8-8.4-17.4c-3.3-7.5-7.5-15-8.9-23c-1.9-9.9,6.1-17.4,16-16.9
		c1.9,0,3.3,2.3,5.2,3.3c-1.4,1.4-2.3,2.8-4.2,3.3c-11.7,3.8-13.6,7-8.4,18.3c4.2,8.9,9.9,17.4,13.6,26.7c6.6,16-2.8,29.1-18.8,27.7
		c-1.9,0-3.8-1.9-5.2-3.3c1.9-1.4,3.3-3.3,5.2-3.3C309.5,203.5,316.1,202.1,315.6,188.5z"/>
	<path class="st0" d="M272.5,238.2c-4.7-2.8-8-4.2-10.8-5.6c5.2-1.4,10.8-2.8,16.9-4.2c0,22.5,0.5,42.2,0,62.4
		c-0.5,9.9-6.6,15.5-18.3,17.8c1.4-3.3,1.9-6.6,3.3-7.5c8-3.8,8.9-10.8,8.9-18.3C272,267.8,272.5,252.8,272.5,238.2z"/>
	<path class="st0" d="M174.4,280c24.9,0,49.3,0,74.1,0c0,0.9,0,1.9,0,2.3c-24.9,0-49.3,0-74.1,0C174.4,281.4,174.4,280.9,174.4,280z
		"/>
	<path class="st0" d="M645,282.3c-26.7,0-51.1,0-76,0C574.2,277.2,634.7,276.7,645,282.3z"/>
	<path class="st0" d="M248.6,306.7c-24.9,0-49.3,0-74.1,0c0-0.9,0-1.9,0-2.8c24.4,0,49.3,0,73.7,0
		C248.1,304.9,248.1,305.8,248.6,306.7z"/>
	<path class="st0" d="M642.7,306.7c-24.4,0-49.3,0-73.7,0c0-0.9,0-1.9,0-2.8c24.4,0,49.3,0,73.7,0
		C642.7,304.9,642.7,305.8,642.7,306.7z"/>
	<path class="st0" d="M174.9,254.6c24.4,0,48.8,0,73.7,0c0,0.5,0,1.4,0,1.9c-24.4,0-48.8,0-73.7,0
		C174.9,256,174.9,255.1,174.9,254.6z"/>
	<path class="st0" d="M569,254.6c24.4,0,49.3,0,73.7,0c0,0.5,0,1.4,0,1.9c-24.4,0-49.3,0-73.7,0C569,256,569,255.1,569,254.6z"/>
	<path class="st0" d="M642.7,233.5c-24.4,0-49.3,0-75.1,0C574.6,228.8,631.4,227.9,642.7,233.5z"/>
	<path class="st0" d="M248.6,233.5c-24.4,0-49.3,0-74.1,0C179.6,228.8,234.9,227.4,248.6,233.5z"/>
	<path class="st0" d="M256.1,130.3c-23.5,0-41.8,17.8-41.8,40.8c0,22.5,17.8,39.9,41.3,39.9c23,0,40.8-17.8,40.8-40.4
		C295.9,148.1,278.1,130.3,256.1,130.3z M255.1,204.9c-18.3,0-33.3-15-33.8-33.3c0-19.2,15-35.2,33.3-35.2c19.2,0,34.3,15,34.3,34.3
		C288.9,189.9,273.9,204.9,255.1,204.9z"/>
	<path class="st0" d="M443.3,130.3c-23.5,0-41.8,17.8-41.8,40.8c0,22.5,17.4,39.9,39.9,39.9c23.5,0,41.3-16.9,41.8-39.4
		C483.6,148.6,465.8,130.3,443.3,130.3z M442.3,204.9c-18.8,0-33.3-15-33.8-33.3c-0.5-19.2,15-35.2,33.3-35.2
		c19.2,0,34.3,15,34.3,34.3C476.6,189.4,461.1,204.9,442.3,204.9z"/>
	<path class="st0" d="M482.2,227.9c-23.5,0-41.3,17.4-41.3,40.8c0,23,17.4,40.4,40.8,40.4c22.5,0,41.3-18.8,40.8-40.8
		C522.1,246.2,504.3,228.4,482.2,227.9z M480.8,303c-18.3,0-33.3-15-33.3-33.8c0-19.2,15-34.7,33.8-34.3c19.2,0.5,33.8,15,33.8,34.3
		C515.1,288,500,303,480.8,303z"/>
	<path class="st0" d="M422.6,252.3c-2.3-8.4-2.8-15.5-6.6-19.7c-2.3-2.8-8.9-2.3-14.1-3.3c0,27.7,0,53.5,0,78.4
		c16.4,1.9,28.6-5.2,33.8-18.8C441.4,274.4,436.2,262.2,422.6,252.3z M409,300.6c0-15.5,0-29.6,0-44.1c13.1,0,22.1,8.4,22.5,21.6
		C432,289.8,422.2,299.7,409,300.6z"/>
	<path class="st0" d="M603.7,149.5c-6.1-12.7-18.8-19.7-32.8-17.8c0,26.3,0,52.1,0,78.4c1.4,0,2.3,0.5,3.8,0.5
		c0.9-4.7,1.9-9.4,3.3-15.5c4.2,3.8,8,7,12.2,9.9c3.8,2.3,8,3.8,12.2,5.6c0.5-0.9,0.9-1.9,1.4-2.8c-5.6-4.7-11.3-9.9-16.9-14.5
		C606.1,176.8,610.8,164.6,603.7,149.5z M577.5,187.1c0-16,0-31.9,0-48.3c15,2.8,22.5,11.7,22.1,24.9
		C599.5,175.8,591.5,184.3,577.5,187.1z"/>
	<path class="st0" d="M526.3,147.7c-8.9-12.2-23.9-18.3-38-15c0,25.3,0,50.7,0,76.9c16,2.8,31-4.2,39.4-17.8
		C535.7,177.7,535.2,160.3,526.3,147.7z M493.9,202.6c0-18.8,0-36.6,0-54.4c0-3.3,0-6.1,0-8.9c16.4-1.9,31,11.7,32.4,29.6
		C527.7,187.1,513.6,202.6,493.9,202.6z"/>
	<path class="st0" d="M210.1,158c-3.3-17.8-16.4-27.2-35.2-26.3c0,26.7,0,53,0,78.8c0.9,0,2.3,0.5,3.3,0.5c0.5-2.3,1.9-5.2,1.9-7.5
		c-0.5-5.2,1.4-7.5,7-8.9C204,189.4,213.4,174.4,210.1,158z M180.5,188c0-2.8-0.5-6.1-0.5-8.9c0-13.1,0-26.7,0-39.9
		c15.5,0.9,23.9,10.3,23.5,24.9C203.5,177.7,194.6,187.1,180.5,188z"/>
	<g>
		<path class="st0" d="M333.4,393.4c-3.9,0.6-7.2,1.2-11.2,1.8c0,4.8,0,9.4,0,15.1c11.5,0,22.6,0,34.4,0c0.3-4.8,0.6-9.7,0.9-15.1
			c-4.2,0-8.1,0-12.4,0c0-7.8,0-15.1,0-23.5c17.8,0,35.3,0,53.4,0c0,7.2,0,14.8,0,22.3c-0.3,0.3-0.6,0.6-1.2,0.6
			c-11.5,0.9-11.2,0.9-11.2,12.4s-0.3,22.6-0.6,34.1c0,10,0,10,9.7,10.3c0.9,0,1.8,0.3,2.7,0.3c0,7.5,0,15.1,0,22.9
			c-17.8,0-35.3,0-53.4,0c0-3.9,0-7.5,0-11.5c-0.3-11.5-0.6-11.5,11.5-12.4c0-5.1,0-10.3,0-16.6c-10.3,0-20.5-0.3-30.8,0.3
			c-1.5,0-3.6,2.7-3.9,4.2c-0.6,3.9-0.3,7.8-0.3,12.4c3.6,0.3,7.2,0.3,11.2,0.6c0,7.5,0,15.1,0,23.2c-17.5,0-35,0-53.1,0
			c0-7.5,0-15.1,0-22c0.9-0.6,1.2-0.9,1.5-1.2c10-0.6,10-0.6,10-11.5c0.3-12.7,0.6-25.3,0.6-38c0-2.1-0.6-4.2-0.9-6.6
			c-3.9-0.6-7.5-1.2-11.8-2.1c0-6.3-0.3-12.4,0.3-18.1c0-1.5,3-3.9,4.5-3.9c14.2-0.3,28.4,0,42.8,0c4.8,0,7.2,1.8,6.3,7.5
			C332.8,383.2,333.4,388,333.4,393.4z"/>
		<path class="st0" d="M265.5,405.2c-7.8,0.6-13.9,0.9-20.2,1.2c-4.2,0-6.9-1.5-6.3-6.3c0.6-4.2-1.5-5.7-5.4-5.7
			c-5.1,0-10.3-0.6-15.1,0.6c-2.7,0.9-4.5,4.8-6.9,7.5c2.7,2.4,5.4,5.7,8.4,6.9c4.8,1.5,10.3,0.6,15.1,1.8c6.9,1.5,14.5,3,20.8,6.3
			c20.2,10.6,20.2,38.6,1.5,51.3c-16.6,11.2-56.4,10.3-71.5-3c-2.1-1.8-3.9-5.1-4.2-8.1c-0.9-4.8-0.3-9.7-0.6-14.8
			c-0.3-4.8,2.4-6.9,6.9-6.6c3,0,5.7,0.3,8.7,0.3c9.7-0.3,9.4-0.3,10.9,8.7c0.3,1.5,2.1,3.6,3.3,3.9c6.9,0.9,13.6,1.5,20.5,1.5
			c4.5,0,8.4-2.4,8.7-7.5c0.6-5.1-3.6-6.3-7.2-6.9c-5.4-1.2-10.9-2.4-16.3-2.4c-19.9-0.6-32.9-10.6-35.3-27.8
			c-1.5-10.6,1.8-19.9,10.6-26.5c19.3-14.8,48.6-12.7,67-2.1c4.5,2.7,6.6,6,6.3,11.5C265.2,394,265.5,399.7,265.5,405.2z"/>
		<path class="st0" d="M444.1,476.7c67.3,16,94.1-32.3,78.7-76.6c13.6,15.4,11.5,51-5.7,67.9C499,485.7,460.7,490.5,444.1,476.7z"/>
		<path class="st0" d="M274.2,435.6c6.3,9.4,3,27.8-6.3,35.6c-10,8.4-21.7,12.7-34.7,13.3c-12.7,0.6-24.4-1.5-34.4-6.9
			c9.7,0.6,20.2,2.4,30.8,1.8c8.4-0.3,17.2-2.7,24.7-5.7c13.9-5.7,19.6-17.2,19.3-32c0-1.5,0-3,0-4.5
			C273.9,436.5,273.9,436.5,274.2,435.6z"/>
		<path class="st0" d="M580.7,445.3c3-0.3,5.7-0.9,8.7-1.2c8.7-1.2,18.1-1.2,26.5-3.9c18.1-6,24.4-16.3,23.8-35
			c0-3.9-0.6-7.8-0.9-11.8c10.6,13.3,4.8,38-11.2,47.4c-14.8,8.7-30.8,8.1-46.8,6.9C581,446.8,581,446.2,580.7,445.3z"/>
		<path class="st0" d="M388.6,397.3c4.8,0,8.7,0,13.6,0c-0.3-5.1-0.9-9.7-0.9-14.2c0-1.5,1.8-3.3,2.7-4.8c0.9,1.5,2.1,3,2.4,4.5
			c0.3,6.3,0,12.7,0,19c-0.3,0.3-0.3,0.6-0.6,0.6c-11.5,1.5-11.5,1.5-11.5,13.9c0,9.4,0,18.7-0.6,28.1c0,1.2-1.8,2.4-2.7,3.9
			c-0.9-1.2-2.4-2.7-2.4-3.9C388.6,429,388.6,413.6,388.6,397.3z"/>
		<path class="st0" d="M597.3,483c-16.6,0-32.9,0-49.2,0c-1.8,0-3.3-1.8-5.1-2.7c0.3-0.9,0.6-1.8,0.9-2.7c11.8,0,23.8-0.3,35.6,0
			c14.2,0.3,14.2,0.3,14.5-13.6c0-1.2,0.3-2.7,0.3-3.9C600,461.3,600.3,462.5,597.3,483z"/>
		<path class="st0" d="M287.5,477c10.3,0,20.2,0,30.5,0c3.3,0,6.6,0.6,10,0.6c8.7,0.3,9,0,8.4-8.7c0-2.1-0.6-4.5-0.3-6.6
			c0-1.2,1.5-2.1,2.4-3.3c0.9,0.9,2.7,1.8,2.7,3c0.3,6,0.6,12.1,0,18.1c0,1.2-3,3-4.5,3c-14.5,0.3-29.3,0.3-43.7,0
			c-2.1,0-4.2-1.5-6-2.4C286.9,479.4,287.2,478.2,287.5,477z"/>
		<path class="st0" d="M401.8,477c-2.1-16.9-1.8-17.5,4.2-17.2c0,7.2,0,14.5,0,22.3c-4.2,0-8.1,0-12.1,0
			c-12.1,0.3-23.8,0.6-35.9,0.9c-1.8,0-3.3-1.5-5.1-2.4c1.5-0.9,3.3-2.7,4.8-2.7c10.9-0.3,21.7-0.3,32.6-0.3
			C394,477.3,397.6,477,401.8,477z"/>
		<path class="st0" d="M248,408.5c4.8,0,9.7,0,14.2,0c3.6,0,5.4-1.2,5.4-5.1c0.3-5.4,0.6-10.6,1.2-18.1c1.8,3.3,3,4.8,3.6,6.6
			c0.6,1.2,0.3,2.7,0.3,3.9c1.2,18.1-3,21.4-20.8,16c-1.5-0.3-2.7-1.2-4.2-1.5C248,410,248,409.1,248,408.5z"/>
		<path class="st0" d="M330.6,402.2c-1.5,1.8-3,3.6-4.2,5.4c-0.9-3-1.8-6-2.7-9.7c4.8-0.9,8.4-1.5,12.4-2.1c0-5.7,0-10.9,0-16.9
			c1.8,0.9,3.9,1.2,3.9,1.8c0.3,6.3,0.9,12.7,0,19C339.7,400.9,334,401.3,330.6,402.2z"/>
		<path class="st0" d="M353.6,441.7c-6,0-12.1-0.3-17.8,0.3c-2.1,0.3-4.2,2.7-6.3,3.9c-1.2,0.9-2.4,2.1-3.3,2.1s-2.1-1.8-2.4-3
			c-0.9-6.3,0.9-8.4,7.5-8.4c6,0,12.1-0.3,17.8,0.3c1.8,0,3.6,1.8,5.1,2.7C354.2,440.2,353.9,440.8,353.6,441.7z"/>
		<path class="st0" d="M235.9,400c-6.9,1.2-13.3,2.1-21.1,3.6c0.3-1.2,0.6-4.2,1.8-5.1C221.5,394.9,232.9,396.1,235.9,400z"/>
		<path class="st0" d="M237.1,442.6c-9-1.8-18.7,0.9-26.8-4.8c0-0.6,0.3-1.5,0.3-2.1c9,1.2,18.1,2.4,27.1,3.9
			C237.4,440.5,237.4,441.4,237.1,442.6z"/>
		<path class="st0" d="M522.5,407c-6.6-24.1-21.4-35.3-46.2-38c-25.6-2.7-58.5,6.9-65.2,39.5c-3.9,18.7-2.1,35.9,11.5,51
			c12.4,13.9,29,16.3,48.9,19c7.2-2.1,17.8-3.9,26.8-8.4C520.4,459.5,529.7,432.9,522.5,407z M479.7,448.9c-1.5,0.6-2.7,1.2-4.2,1.8
			c-8.4,2.4-18.4,0-25-5.4c-1.8-1.5-3.3-3.3-4.5-5.1l0,0c-13.3-12.7-6-39.2,12.1-44.9c14.8-4.5,28.7,1.2,34.1,14.8
			C498.1,424.5,492.3,442,479.7,448.9z"/>
		<path class="st0" d="M603,371.7c-19.6-1.5-39.5-0.9-59.4-0.9c-2.7,0-5.1,0.3-7.8,0.6c0,6.6,0,12.4,0,18.1c0,3.9,1.5,6,5.7,5.4
			c1.8-0.3,3.6,0,6.9,0c0,15.7,0.6,30.5-0.3,45.2c-0.3,10.3-1.2,10.3-10.9,11.2c-0.3,0-0.6,0.3-1.8,1.2c0,5.1,0.3,10.9,0,16.6
			c-0.3,4.5,1.8,6,6,5.7c14.8-0.3,29.3-0.3,44-0.6c1.8,0,5.1-1.2,5.1-2.1c0.6-6.3,1.2-13,0.3-19c-0.3-1.5-6.9-1.8-10.6-2.4
			c-0.3,0-0.9-0.3-1.5-0.6c0-2.7,0-5.4,0-9c7.5,0,14.5,0.3,21.4,0c18.4-0.9,33.2-10,35.9-23.5C641.4,391.3,632.3,373.8,603,371.7z
			 M607.3,407.3c-1.2,3.6-4.8,8.1-8.1,8.7c-6.6,1.5-13.6,0.3-19.6,0.3c-0.9-0.9-1.2-0.9-1.2-1.2c0.3-6,0.3-12.1,0.6-18.1
			c7.8,0.3,15.7,0,23.2,1.5C604.6,399.4,607.9,405.2,607.3,407.3z"/>
		<path class="st0" d="M445.6,440.2c-4.2-7.2-4.8-15.1-3.6-23.2c2.7-17.2,23.5-26.8,38-17.5c-4.5,0.3-9.4,0-13.6,1.2
			c-13.9,3.3-22.9,17.8-21.4,32.9C445.3,435.6,445.6,438.1,445.6,440.2L445.6,440.2z"/>
		<path class="st0" d="M604.6,404.3c-4.2,0-7.2,0-10,0c-9.4,0-9.4,0-10.3,9.4c-1.2-0.3-3.3-0.3-3.3-0.6c-0.3-3.9-1.2-7.8-0.3-11.8
			c0.3-1.2,4.8-1.5,7.5-1.8C593.7,399.4,599.4,398.5,604.6,404.3z"/>
	</g>
	<g id="Layer_2">
	</g>
</g>
<g id="Layer_2_1_">
	<path class="st1" d="M645.5,100.1c-0.9,1.4-1.4,4.2-2.3,4.2c-2.8,0.5-6.1,0.5-9.4,0.5c-406.3,0-46.3,0-452.6,0
		c-3.3,0-6.1,0-9.4-0.5c-0.9,0-0.9-2.8-1.4-4.2C584.3,100.1,231.2,100.1,645.5,100.1z"/>
	<path class="st1" d="M645.5,524.3c-0.9,1.4-1.4,4.2-2.3,4.2c-2.8,0.5-6.1,0.5-9.4,0.5c-406.3,0-46.3,0-452.6,0
		c-3.3,0-6.1,0-9.4-0.5c-0.9,0-0.9-2.8-1.4-4.2C584.3,524.3,231.2,524.3,645.5,524.3z"/>
	<path class="st1" d="M645.1,334.2c-413.8,0-61.3,0-475.1,0c0-0.5,0-1.4,0-1.9c413.8,0,61.3,0,475.1,0
		C645.1,332.8,645.1,333.3,645.1,334.2z"/>
	<path class="st1" d="M372.6,168.6c-3.3-7-5.2-11.7-8.4-18.8c-6.1,19.7-4.7,39.9-11.3,57.7c-1.9-0.5-3.3-0.9-5.2-0.9
		c4.2-25.3,8-51.1,12.2-76.5c0.5,0,1.4-0.5,1.9-0.5c3.8,7,7,14.5,11.3,22.5c3.8-8.4,7-15.5,10.3-23c0.5,0,1.4,0,1.9,0.5
		c4.2,25.8,8.4,51.6,12.2,77.4c-1.4,0.5-2.8,0.5-4.7,0.9c-8-17.4-6.1-37.1-11.7-56.8C378.3,157.3,375.5,162.5,372.6,168.6z"/>
	<path class="st1" d="M355.3,306.5c-1.9-2.8-4.7-5.2-5.6-8.4c-4.7-13.6-9.4-27.2-16-40.4c0,13.1,0,25.8,0,38.9
		c0,2.8-2.3,5.6-3.8,8.4c-1.4-2.8-3.3-5.2-3.3-8c-0.5-20.2-0.5-40.8,0-61.5c0-3.3,1.9-6.1,3.3-9.4c1.4,2.8,2.8,6.1,4.2,8.9
		c0.5,0.9,0.5,1.9,0.9,3.3c8-1.4,8.4-15.5,19.7-11.7c-0.9,1.4-1.4,2.8-2.3,3.8c-12.2,9.9-12.7,21.6-6.1,35.7
		c5.6,12.2,8.9,25.3,13.1,38C357.6,305.1,356.2,306.1,355.3,306.5z"/>
	<path class="st1" d="M307.9,261c0-9.9,0-19.2,0-29.1c0-1.9,1.9-3.8,3.3-5.2c1.4,1.9,3.3,3.3,3.3,5.2c0,20.2,0.5,39.9,0,60.1
		c-0.5,8.4-4.7,14.5-14.1,14.1c-9.9-0.5-13.1-6.6-13.6-15c-0.5-19.2,0-38.5,0-58.2c0-1.9,2.3-4.2,3.3-6.1c0.9,2.3,2.8,4.2,2.8,6.6
		c0.5,16.4,0,32.4,0,48.8c0,2.8-0.9,6.1,0.5,8c1.9,3.3,4.7,6.6,7.5,9.4c2.3-3.3,6.1-6.1,6.6-9.4C308.4,280.7,307.9,270.9,307.9,261
		L307.9,261z"/>
	<path class="st1" d="M634,127.3c6.6,5.2,7.5,72.7,0.5,81.6c-0.9-4.2-1.9-7.5-1.9-10.3c0-12.7-0.9-24.9,0-37.5
		c0.9-11.7-3.3-18.3-16-21.6c0,12.2,0,23.9,0,35.7c0,8.4,0.5,16.4,0,24.9c0,2.3-1.9,5.2-3.3,7.5c-0.9-0.5-1.9-0.5-2.8-0.9
		c0-26.3,0-52.6,0-79.8c7,4.2,13.6,8,20.6,11.7C632.1,134.8,633,131.5,634,127.3z"/>
	<path class="st1" d="M516.2,304.2c5.6-25.3,22.1-49.7,3.8-76.9c14.1-1.4,8,11.3,13.6,14.5c5.2-3.3-0.5-15.5,13.1-14.5
		c-16.9,27.2-0.5,51.6,4.2,77.4c-8,3.3-7.5-3.3-8.9-7c-1.4-5.2-2.8-9.9-4.2-15c-1.4-4.7-2.3-8.9-3.8-15
		c-6.6,13.1-6.1,28.2-13.6,38.9C519.5,305.6,517.6,305.1,516.2,304.2z"/>
	<path class="st1" d="M539.2,127.8c3.8,0,8-0.5,12.7,0c2.3,0.5,4.2,2.3,6.1,3.8c-1.9,0.9-3.8,2.3-5.6,3.3c-2.3,0.5-4.7,0.5-8,0.5
		c0,3.8,0,7.5,0,10.8c5.2,1.4,9.9,2.3,14.5,3.8c0,1.4-0.5,2.3-0.5,3.8c-4.2,0.5-8.4,0.5-14.5,0.9c0,7,0,14.5,0,22.1s0,15,0,22.1
		c1.4,0.9,1.9,1.4,2.8,1.4c3.8,1.4,7.5,2.3,11.7,3.8c-4.2,1.4-8.4,2.8-12.7,3.3c-2.3,0.5-4.7-0.5-8.9-0.5c0-12.7,0.5-25.3,0-38
		c-0.5-6.6-3.8-13.1-3.8-19.7C533.1,142.8,536.4,136.2,539.2,127.8z"/>
	<path class="st1" d="M330.4,138.1c-3.8-3.3-6.1-5.6-8.4-7.5c2.8-0.9,6.1-1.9,9.4-2.8c1.9-0.5,4.2-0.5,6.1,0
		c3.3,0.5,6.1,1.9,8.9,2.8c-2.3,2.3-4.7,4.2-8.4,7.5c0,19.2,0,39.9,0,60.5c0,2.8-2.8,5.6-4.2,8.9c-0.9-2.8-3.3-5.6-3.3-8.4
		C330.4,178,330.4,157.3,330.4,138.1z"/>
	<path class="st1" d="M374.5,298.6c4.7,0.5,8.9,0.9,13.1,1.4c0,1.4,0.5,2.8,0.5,3.8c-6.6,0.9-13.1,1.4-21.6,2.3
		c0-14.1,0.5-26.7,0-39.4c-0.5-6.6-3.8-13.1-3.3-19.7c0.5-6.6,3.8-13.1,5.6-20.2c5.6,0,12.2,0,18.8,0c0,1.4,0.5,2.3,0.5,3.8
		c-4.2,0.9-8.4,1.9-13.6,3.3c0,2.8,0,6.6,0,10.3c4.2,0.9,9.4,2.3,14.1,3.8c0,0.9-0.5,2.3-0.5,3.3c-4.2,0.5-8.4,0.5-13.6,0.9
		C374.5,267.6,374.5,283.1,374.5,298.6z"/>
	<path class="st1" d="M311.6,185.5c-1.9-4.2-5.2-10.8-8.4-17.4c-3.3-7.5-7.5-15-8.9-23c-1.9-9.9,6.1-17.4,16-16.9
		c1.9,0,3.3,2.3,5.2,3.3c-1.4,1.4-2.3,2.8-4.2,3.3c-11.7,3.8-13.6,7-8.4,18.3c4.2,8.9,9.9,17.4,13.6,26.7c6.6,16-2.8,29.1-18.8,27.7
		c-1.9,0-3.8-1.9-5.2-3.3c1.9-1.4,3.3-3.3,5.2-3.3C305.5,200.5,312.1,199.1,311.6,185.5z"/>
	<path class="st1" d="M268.5,235.2c-4.7-2.8-8-4.2-10.8-5.6c5.2-1.4,10.8-2.8,16.9-4.2c0,22.5,0.5,42.2,0,62.4
		c-0.5,9.9-6.6,15.5-18.3,17.8c1.4-3.3,1.9-6.6,3.3-7.5c8-3.8,8.9-10.8,8.9-18.3C268,264.8,268.5,249.8,268.5,235.2z"/>
	<path class="st1" d="M170.4,277c24.9,0,49.3,0,74.1,0c0,0.9,0,1.9,0,2.3c-24.9,0-49.3,0-74.1,0C170.4,278.4,170.4,277.9,170.4,277z
		"/>
	<path class="st1" d="M641,279.3c-26.7,0-51.1,0-76,0C570.2,274.2,630.7,273.7,641,279.3z"/>
	<path class="st1" d="M244.6,303.7c-24.9,0-49.3,0-74.1,0c0-0.9,0-1.9,0-2.8c24.4,0,49.3,0,73.7,0
		C244.1,301.9,244.1,302.8,244.6,303.7z"/>
	<path class="st1" d="M638.7,303.7c-24.4,0-49.3,0-73.7,0c0-0.9,0-1.9,0-2.8c24.4,0,49.3,0,73.7,0
		C638.7,301.9,638.7,302.8,638.7,303.7z"/>
	<path class="st1" d="M170.9,252.6c24.4,0,48.8,0,73.7,0c0,0.5,0,1.4,0,1.9c-24.4,0-48.8,0-73.7,0
		C170.9,254,170.9,253.1,170.9,252.6z"/>
	<path class="st1" d="M565,252.6c24.4,0,49.3,0,73.7,0c0,0.5,0,1.4,0,1.9c-24.4,0-49.3,0-73.7,0C565,254,565,253.1,565,252.6z"/>
	<path class="st1" d="M638.7,230.5c-24.4,0-49.3,0-75.1,0C570.6,225.8,627.4,224.9,638.7,230.5z"/>
	<path class="st1" d="M244.6,230.5c-24.4,0-49.3,0-74.1,0C175.6,225.8,230.9,224.4,244.6,230.5z"/>
	<path class="st1" d="M252.1,127.3c-23.5,0-41.8,17.8-41.8,40.8c0,22.5,17.8,39.9,41.3,39.9c23,0,40.8-17.8,40.8-40.4
		C291.9,145.1,274.1,127.3,252.1,127.3z M251.1,201.9c-18.3,0-33.3-15-33.8-33.3c0-19.2,15-35.2,33.3-35.2c19.2,0,34.3,15,34.3,34.3
		C284.9,186.9,269.9,201.9,251.1,201.9z"/>
	<path class="st1" d="M439.3,127.3c-23.5,0-41.8,17.8-41.8,40.8c0,22.5,17.4,39.9,39.9,39.9c23.5,0,41.3-16.9,41.8-39.4
		C479.6,145.6,461.8,127.3,439.3,127.3z M438.3,201.9c-18.8,0-33.3-15-33.8-33.3c-0.5-19.2,15-35.2,33.3-35.2
		c19.2,0,34.3,15,34.3,34.3C472.6,186.4,457.1,201.9,438.3,201.9z"/>
	<path class="st1" d="M478.2,224.9c-23.5,0-41.3,17.4-41.3,40.8c0,23,17.4,40.4,40.8,40.4c22.5,0,41.3-18.8,40.8-40.8
		C518.1,243.2,500.3,225.4,478.2,224.9z M476.8,300c-18.3,0-33.3-15-33.3-33.8c0-19.2,15-34.7,33.8-34.3c19.2,0.5,33.8,15,33.8,34.3
		C511.1,285,496,300,476.8,300z"/>
	<path class="st1" d="M418.6,249.3c-2.3-8.4-2.8-15.5-6.6-19.7c-2.3-2.8-8.9-2.3-14.1-3.3c0,27.7,0,53.5,0,78.4
		c16.4,1.9,28.6-5.2,33.8-18.8C437.4,271.4,432.2,259.2,418.6,249.3z M405,297.6c0-15.5,0-29.6,0-44.1c13.1,0,22.1,8.4,22.5,21.6
		C428,286.8,418.2,296.7,405,297.6z"/>
	<path class="st1" d="M599.7,146.5c-6.1-12.7-18.8-19.7-32.8-17.8c0,26.3,0,52.1,0,78.4c1.4,0,2.3,0.5,3.8,0.5
		c0.9-4.7,1.9-9.4,3.3-15.5c4.2,3.8,8,7,12.2,9.9c3.8,2.3,8,3.8,12.2,5.6c0.5-0.9,0.9-1.9,1.4-2.8c-5.6-4.7-11.3-9.9-16.9-14.5
		C602.1,173.8,606.8,161.6,599.7,146.5z M573.5,184.1c0-16,0-31.9,0-48.3c15,2.8,22.5,11.7,22.1,24.9
		C595.5,172.8,587.5,181.3,573.5,184.1z"/>
	<path class="st1" d="M522.3,144.7c-8.9-12.2-23.9-18.3-38-15c0,25.3,0,50.7,0,76.9c16,2.8,31-4.2,39.4-17.8
		C531.7,174.7,531.2,157.3,522.3,144.7z M489.9,199.6c0-18.8,0-36.6,0-54.4c0-3.3,0-6.1,0-8.9c16.4-1.9,31,11.7,32.4,29.6
		C523.7,184.1,509.6,199.6,489.9,199.6z"/>
	<path class="st1" d="M206.1,155c-3.3-17.8-16.4-27.2-35.2-26.3c0,26.7,0,53,0,78.8c0.9,0,2.3,0.5,3.3,0.5c0.5-2.3,1.9-5.2,1.9-7.5
		c-0.5-5.2,1.4-7.5,7-8.9C200,186.4,209.4,171.4,206.1,155z M176.5,185c0-2.8-0.5-6.1-0.5-8.9c0-13.1,0-26.7,0-39.9
		c15.5,0.9,23.9,10.3,23.5,24.9C199.5,174.7,190.6,184.1,176.5,185z"/>
	<g>
		<path class="st1" d="M329.4,390.4c-3.9,0.6-7.2,1.2-11.2,1.8c0,4.8,0,9.4,0,15.1c11.5,0,22.6,0,34.4,0c0.3-4.8,0.6-9.7,0.9-15.1
			c-4.2,0-8.1,0-12.4,0c0-7.8,0-15.1,0-23.5c17.8,0,35.3,0,53.4,0c0,7.2,0,14.8,0,22.3c-0.3,0.3-0.6,0.6-1.2,0.6
			c-11.5,0.9-11.2,0.9-11.2,12.4s-0.3,22.6-0.6,34.1c0,10,0,10,9.7,10.3c0.9,0,1.8,0.3,2.7,0.3c0,7.5,0,15.1,0,22.9
			c-17.8,0-35.3,0-53.4,0c0-3.9,0-7.5,0-11.5c-0.3-11.5-0.6-11.5,11.5-12.4c0-5.1,0-10.3,0-16.6c-10.3,0-20.5-0.3-30.8,0.3
			c-1.5,0-3.6,2.7-3.9,4.2c-0.6,3.9-0.3,7.8-0.3,12.4c3.6,0.3,7.2,0.3,11.2,0.6c0,7.5,0,15.1,0,23.2c-17.5,0-35,0-53.1,0
			c0-7.5,0-15.1,0-22c0.9-0.6,1.2-0.9,1.5-1.2c10-0.6,10-0.6,10-11.5c0.3-12.7,0.6-25.3,0.6-38c0-2.1-0.6-4.2-0.9-6.6
			c-3.9-0.6-7.5-1.2-11.8-2.1c0-6.3-0.3-12.4,0.3-18.1c0-1.5,3-3.9,4.5-3.9c14.2-0.3,28.4,0,42.8,0c4.8,0,7.2,1.8,6.3,7.5
			C328.8,380.2,329.4,385,329.4,390.4z"/>
		<path class="st1" d="M261.5,402.2c-7.8,0.6-13.9,0.9-20.2,1.2c-4.2,0-6.9-1.5-6.3-6.3c0.6-4.2-1.5-5.7-5.4-5.7
			c-5.1,0-10.3-0.6-15.1,0.6c-2.7,0.9-4.5,4.8-6.9,7.5c2.7,2.4,5.4,5.7,8.4,6.9c4.8,1.5,10.3,0.6,15.1,1.8c6.9,1.5,14.5,3,20.8,6.3
			c20.2,10.6,20.2,38.6,1.5,51.3c-16.6,11.2-56.4,10.3-71.5-3c-2.1-1.8-3.9-5.1-4.2-8.1c-0.9-4.8-0.3-9.7-0.6-14.8
			c-0.3-4.8,2.4-6.9,6.9-6.6c3,0,5.7,0.3,8.7,0.3c9.7-0.3,9.4-0.3,10.9,8.7c0.3,1.5,2.1,3.6,3.3,3.9c6.9,0.9,13.6,1.5,20.5,1.5
			c4.5,0,8.4-2.4,8.7-7.5c0.6-5.1-3.6-6.3-7.2-6.9c-5.4-1.2-10.9-2.4-16.3-2.4c-19.9-0.6-32.9-10.6-35.3-27.8
			c-1.5-10.6,1.8-19.9,10.6-26.5c19.3-14.8,48.6-12.7,67-2.1c4.5,2.7,6.6,6,6.3,11.5C261.2,391,261.5,396.7,261.5,402.2z"/>
		<path class="st1" d="M244,405.5c4.8,0,9.7,0,14.2,0c3.6,0,5.4-1.2,5.4-5.1c0.3-5.4,0.6-10.6,1.2-18.1c1.8,3.3,3,4.8,3.6,6.6
			c0.6,1.2,0.3,2.7,0.3,3.9c1.2,18.1-3,21.4-20.8,16c-1.5-0.3-2.7-1.2-4.2-1.5C244,407,244,406.1,244,405.5z"/>
		<path class="st1" d="M518.5,404c-6.6-24.1-21.4-35.3-46.2-38c-25.6-2.7-58.5,6.9-65.2,39.5c-3.9,18.7-2.1,35.9,11.5,51
			c12.4,13.9,29,16.3,48.9,19c7.2-2.1,17.8-3.9,26.8-8.4C516.4,456.5,525.7,429.9,518.5,404z M475.7,445.9c-1.5,0.6-2.7,1.2-4.2,1.8
			c-8.4,2.4-18.4,0-25-5.4c-1.8-1.5-3.3-3.3-4.5-5.1l0,0c-13.3-12.7-6-39.2,12.1-44.9c14.8-4.5,28.7,1.2,34.1,14.8
			C494.1,421.5,488.3,439,475.7,445.9z"/>
		<path class="st1" d="M599,368.7c-19.6-1.5-39.5-0.9-59.4-0.9c-2.7,0-5.1,0.3-7.8,0.6c0,6.6,0,12.4,0,18.1c0,3.9,1.5,6,5.7,5.4
			c1.8-0.3,3.6,0,6.9,0c0,15.7,0.6,30.5-0.3,45.2c-0.3,10.3-1.2,10.3-10.9,11.2c-0.3,0-0.6,0.3-1.8,1.2c0,5.1,0.3,10.9,0,16.6
			c-0.3,4.5,1.8,6,6,5.7c14.8-0.3,29.3-0.3,44-0.6c1.8,0,5.1-1.2,5.1-2.1c0.6-6.3,1.2-13,0.3-19c-0.3-1.5-6.9-1.8-10.6-2.4
			c-0.3,0-0.9-0.3-1.5-0.6c0-2.7,0-5.4,0-9c7.5,0,14.5,0.3,21.4,0c18.4-0.9,33.2-10,35.9-23.5C637.4,388.3,628.3,370.8,599,368.7z
			 M603.3,404.3c-1.2,3.6-4.8,8.1-8.1,8.7c-6.6,1.5-13.6,0.3-19.6,0.3c-0.9-0.9-1.2-0.9-1.2-1.2c0.3-6,0.3-12.1,0.6-18.1
			c7.8,0.3,15.7,0,23.2,1.5C600.6,396.4,603.9,402.2,603.3,404.3z"/>
	</g>
	<g id="Layer_2_2_">
	</g>
</g>
</svg>
