<?xml version="1.0" encoding="utf-8"?>
<!-- Generator: Adobe Illustrator 21.1.0, SVG Export Plug-In . SVG Version: 6.00 Build 0)  -->
<svg version="1.1" id="Capa_1" xmlns="http://www.w3.org/2000/svg" xmlns:xlink="http://www.w3.org/1999/xlink" x="0px" y="0px"
	 viewBox="0 0 572.8 572.8" style="enable-background:new 0 0 572.8 572.8;" xml:space="preserve">
<style type="text/css">
	.st0{fill:#FFFFFF;}
</style>
<path class="st0" d="M493.2,445.7c14.6-10.8,28.7-21,42.5-31.8c1.4-1.1,1.6-6.2,0.4-7.6c-8.4-9.4-16.3-19.8-26.3-27
	c-22.7-16.3-46.5-30.9-69.8-46.2c-17.3,8.4-35.8,17.2-54.6,26.3c2.5,2.3,4.8,5.1,7.6,7.1c13.8,9.5,27.6,19.1,41.8,28
	C456.5,408.1,478.9,420.9,493.2,445.7z"/>
<path d="M5.8,355.7c4.5-15.9,16.1-25.3,29.8-33c11.1-6.2,21.8-13.3,33-19.3c21.1-11.3,33-28.8,40-51.4c10.3-33.3,21.7-66.2,34-98.8
	c7.5-19.8,18.3-38.1,33.3-53.5c12.3-12.6,26.8-19.9,45.1-17.9c10.6,1.1,18.7,6.5,25.6,13.8c14.5,15.4,28.7,31,43,46.6
	c15.7,17.2,31.7,34.2,53.3,43.8c9.3,4.1,19.8,6.6,30,7.9c9.8,1.2,17.5-6.5,18.8-16.2c1.3-9.6-4.4-19.4-13.9-20.7
	c-20.3-2.9-34.9-14.7-48.4-28.5c-8.1-8.3-15.8-17.1-24-25.9c13-6.2,25-12.5,37.3-17.6c19.5-8.2,39.8-2.6,56.7,14.9
	c14.7,15.3,25.5,33.3,32.9,52.9c12.4,33.1,24.2,66.4,34.6,100.2c6.9,22.1,18.5,39.2,39,50.3c13.4,7.3,26.5,15.3,39.6,23.1
	c26.3,15.7,30.7,39,11.8,64.3c-16.8-25.8-42.5-40.7-68.2-54.9c-34-18.7-50.2-49.1-61.1-84c-0.8-2.4-1.5-4.9-2.4-7.2
	c-0.2-0.7-0.8-1.2-1.1-1.6c-91.4,52.4-182.6,52.6-273.9,0c-4.9,12.6-9.1,25.7-15,38c-5.7,12.1-13,23.4-20.4,36.4
	c7.7,5.5,15.8,11.9,24.6,17.3c41.6,25.8,87.5,37.4,135.9,37.8c25.1,0.2,50.1-3.7,75.2-5.5c2.7-0.2,6.7,0.1,8,1.9
	c14.7,18.7,34.2,31,54,43.1c13.4,8.3,26.8,16.6,39.6,25.9c6.3,4.6,11.1,11.3,17.3,17.9c-25.5,11.8-49.9,20.4-75.2,26.2
	c-104.1,24.1-204.8,15.3-301.3-31.8c-23.5-11.4-44.6-26.5-63.3-44.9c-11.3-11.1-19.9-23.7-24.4-39C5.8,362.9,5.8,359.3,5.8,355.7z"
	/>
<path d="M493.2,445.7c-14.3-24.8-36.7-37.6-58.5-51.3c-14.2-8.9-28-18.5-41.8-28c-2.9-2-5.2-4.7-7.6-7.1c18.9-9.1,37.3-18,54.6-26.3
	c23.3,15.3,47.1,29.9,69.8,46.2c10.1,7.2,17.9,17.6,26.3,27c1.3,1.4,1,6.5-0.4,7.6C521.9,424.7,507.7,435,493.2,445.7z"/>
</svg>
