<?xml version="1.0" encoding="utf-8"?>
<!-- Generator: Adobe Illustrator 21.1.0, SVG Export Plug-In . SVG Version: 6.00 Build 0)  -->
<svg version="1.1" id="Layer_1" xmlns="http://www.w3.org/2000/svg" xmlns:xlink="http://www.w3.org/1999/xlink" x="0px" y="0px"
	 viewBox="0 0 512 512" style="enable-background:new 0 0 512 512;" xml:space="preserve">
<style type="text/css">
	.st0{fill:#FFFFFF;}
</style>
<g>
	<path d="M236.4,1.1c13,0,26,0,39.1,0c8.6,1.5,17.2,2.9,25.8,4.4c131.9,22.8,232.1,148.9,205.4,295.8
		c-24.9,137.1-150.5,226.4-287.6,205.3C118.7,491.2,51.3,432.8,16.3,337.9C8.9,317.8,6.6,295.7,2,274.6c0-13,0-26,0-39.1
		c0.8-5.2,1.8-10.3,2.5-15.5C17.7,121.2,92.9,35.9,189.7,10.5C205,6.4,220.8,4.2,236.4,1.1z M473.2,256.4
		c2.2-112.4-89.5-217-216.4-217.7C137.5,38,39.3,136.8,39.4,256.2c0.1,117.6,97.5,214.7,213.5,216.5
		C374,474.6,474.7,374.1,473.2,256.4z"/>
	<path class="st0" d="M473.2,256.4C474.7,374.1,374,474.6,253,472.7c-116.1-1.8-213.4-98.9-213.5-216.5
		C39.3,136.8,137.5,38,256.8,38.7C383.7,39.4,475.4,144.1,473.2,256.4z M256,159.5c-51.3-0.6-94.9,41.8-95.5,92.7
		c-0.7,56.2,40.9,99.8,95.6,100.3c52.4,0.4,96.4-42.7,97.3-95.6C354.4,203.2,311.4,160.2,256,159.5z M221.9,75.4
		c-58.4-2.5-151.1,90.6-145.1,145.7c16.2,2.9,32.6,5.9,49.4,8.9c14.3-56,49.3-90.6,104.8-104.8C227.8,108,224.8,91.7,221.9,75.4z
		 M291.9,437.7c85.1-16.8,138.3-88.3,145.7-146.9c-16.7-3.1-33.4-6.3-50.5-9.5c-14.2,56.2-49.3,90.9-105,105
		C285.4,403.7,288.6,420.4,291.9,437.7z"/>
	<path d="M256,159.5c55.4,0.6,98.3,43.6,97.4,97.4c-1,52.8-44.9,96-97.3,95.6c-54.6-0.4-96.2-44.1-95.6-100.3
		C161.1,201.3,204.7,158.9,256,159.5z M280.1,255.3c-0.2-12.9-10.7-22.9-23.6-22.9c-12.8,0.1-23.1,10.4-23.2,23.3
		c0,13.4,10.8,23.9,24.1,23.5C269.9,278.8,280.3,267.8,280.1,255.3z"/>
	<path d="M221.9,75.4c3,16.2,6,32.6,9.1,49.7c-55.5,14.3-90.5,48.9-104.8,104.8c-16.9-3-33.2-6-49.4-8.9
		C70.8,166.1,163.4,72.9,221.9,75.4z"/>
	<path d="M291.9,437.7c-3.3-17.3-6.5-34-9.8-51.4c55.8-14.1,90.8-48.9,105-105c17.1,3.2,33.8,6.4,50.5,9.5
		C430.2,349.4,376.9,420.9,291.9,437.7z"/>
	<path class="st0" d="M280.1,255.3c0.2,12.5-10.2,23.5-22.7,23.9c-13.3,0.4-24.1-10.1-24.1-23.5c0-12.8,10.3-23.2,23.2-23.3
		C269.4,232.4,279.9,242.4,280.1,255.3z"/>
</g>
</svg>
