<?xml version="1.0" encoding="utf-8"?>
<!-- Generator: Adobe Illustrator 21.1.0, SVG Export Plug-In . SVG Version: 6.00 Build 0)  -->
<svg version="1.1" id="Layer_1" xmlns="http://www.w3.org/2000/svg" xmlns:xlink="http://www.w3.org/1999/xlink" x="0px" y="0px"
	 viewBox="0 0 512 512" style="enable-background:new 0 0 512 512;" xml:space="preserve">
<style type="text/css">
	.st0{fill:#FFFFFF;}
</style>
<path d="M497.4,264.7c-31.2,6.3-61.6,12.4-92.6,18.6c-6.6-19.4-13.2-38.8-19.8-58.2c-0.6,0.1-1.2,0.1-1.8,0.2
	c-0.7,10.9-1.4,21.8-2.2,32.7c-3.3,42.1-8.8,83.9-17.6,125.2c-0.4,1.8-0.9,3.6-1.4,5.3c-3.7,12-5.2,13.1-17.4,13.1
	c-59.3,0-118.6,0-177.9,0c-13,0-15-0.7-17.9-14.2c-4.7-22.3-9.1-44.7-11.9-67.3c-3.7-29.7-5.8-59.6-8.6-89.5
	c-0.2-1.8-0.5-3.5-2.4-5.6c-6.5,19.1-13,38.2-19.8,58c-30.6-6.1-61.4-12.3-93.2-18.7c3.8-14.9,7.2-29.4,11.2-43.7
	c11.2-40.5,25.9-79.5,47.7-115.1c22.2-36.3,50.4-65.2,90.8-78.5c5.2-1.7,10.6-3.1,16.1-3.9c9.6-1.4,9.6-1.1,12.9,8.3
	c11,31.4,29.9,55.6,58.4,71.3c4.3,2.3,7.5,2.1,11.6-0.2c29.4-16.3,48.5-41.5,59-74.1c1.6-5,3.3-6.6,8.7-5.8
	c38.7,6,68.9,26.8,93.3,57.7c26.4,33.4,43.1,72.3,55.9,113c6.9,22.1,12.3,44.7,18.3,67.1C497.1,261.7,497.1,262.8,497.4,264.7z
	 M192.4,218.7c10.4-0.1,18.1-7.8,17.9-17.9c-0.2-9.5-8.3-17.2-18.1-17.1c-9.9,0-17.7,7.6-17.8,17.3
	C174.4,211.4,182,218.8,192.4,218.7z"/>
<path d="M255.6,508.9c-27.1,0-54.2,0.2-81.3-0.2c-4.7-0.1-10.1-1.8-14-4.6c-5.7-4-6.6-10.8-4.6-17.5c2-6.8,6.9-10.4,13.6-11.6
	c1.3-0.2,2.6-0.1,4-0.1c54.9,0,109.7,0,164.6,0c10.4,0,17.1,5.3,18.1,14.2c1.4,11.5-5.7,19.6-17.7,19.7
	C310.7,509,283.1,508.9,255.6,508.9C255.6,508.9,255.6,508.9,255.6,508.9z"/>
<path d="M255.6,455.9c-27.1,0-54.2,0.2-81.3-0.2c-4.7-0.1-10.1-1.8-14-4.6c-5.7-4-6.6-10.8-4.6-17.5c2-6.8,6.9-10.4,13.6-11.6
	c1.3-0.2,2.6-0.1,4-0.1c54.9,0,109.7,0,164.6,0c10.4,0,17.1,5.3,18.1,14.2c1.4,11.5-5.7,19.6-17.7,19.7
	C310.7,456,283.1,455.9,255.6,455.9C255.6,455.9,255.6,455.9,255.6,455.9z"/>
<path d="M97.9,317.1c-1.4,8.6-2.6,16.3-3.9,24.1c-1.3,7.6-4,10.1-11.3,8.9c-16.5-2.7-33-5.9-49.4-8.9c-7.2-1.3-14.3-2.6-21.5-3.9
	c-7.8-1.4-10.7-5.4-9.6-13.4c1.1-8.2,2.5-16.3,3.9-25.1C36.9,304.8,67.1,310.9,97.9,317.1z"/>
<path d="M412.9,317.1c30.7-6.2,60.8-12.2,91.5-18.4c1.6,9.5,3.3,18.3,4.5,27.1c0.7,5.7-3.3,10.3-9.3,11.4
	c-22.5,4.2-45,8.4-67.5,12.3c-11.9,2.1-14.2,0.1-16.1-12.5C415,330.8,414,324.5,412.9,317.1z"/>
<path class="st0" d="M192.4,218.7c-10.5,0.1-18.1-7.4-18-17.7c0.1-9.7,7.9-17.3,17.8-17.3c9.8,0,17.9,7.7,18.1,17.1
	C210.5,211,202.8,218.6,192.4,218.7z"/>
</svg>
