<?xml version="1.0" encoding="utf-8"?>
<!-- Generator: Adobe Illustrator 21.1.0, SVG Export Plug-In . SVG Version: 6.00 Build 0)  -->
<svg version="1.1" xmlns="http://www.w3.org/2000/svg" xmlns:xlink="http://www.w3.org/1999/xlink" x="0px" y="0px"
	 viewBox="0 0 115 177" style="enable-background:new 0 0 115 177;" xml:space="preserve">
<style type="text/css">
	.st0{fill:#FAAF40;}
	.st1{fill:#FFFFFF;}
	.st2{fill:none;}
</style>
<g id="Layer_1">
	<path class="st0" d="M15.4,139.3c0.5-0.6,1.1-1.2,1.6-1.9c0.5-0.7,1.2-0.7,1.8-0.5c0.8,0.3,1.5,0.8,2.1,1.4c0.5,0.4,0.9,1,1.4,1.6
		c0.2,0.2,0.4,0.5,0.4,0.8c0.1,0.7-0.1,1.5,0,2.2c0.3,1.4-0.6,2.3-1.5,3.1c-0.7,0.6-1.5,1.2-2.3,1.8c-0.4,0.3-2.4-0.1-3-0.4
		c-0.5-0.2-1-0.2-1.4-0.7c-0.4-0.5-1-0.9-1.4-1.3c-0.1-0.1,0.1-0.4,0.2-0.5c0.2-0.1,0.5-0.1,0.7-0.1c-0.1-0.2-0.3-0.3-0.4-0.5
		c-0.4,0-0.7-0.1-1.1-0.1c-0.5-0.9,0.3-1.3,0.8-1.8c0.1-0.1,0.3-0.5,0.2-0.5c-0.7-0.8-0.6-1,0-2c0.2-0.2,0.1-0.6,0.2-1.3
		c0.4,0.2,0.8,0.5,1.2,0.6C15,139.2,15.2,139.2,15.4,139.3c-0.2,0.3-0.5,0.6-0.6,1c-0.2,0.5,0.3,1.3-0.6,1.6c-0.1,0,0,0.9,0.1,0.9
		c0.6,0.1,0.4,0.6,0.5,1c0.1,0.4,1.6,1.5,2.1,1.5c1.2,0.2,2.2-0.4,3.2-0.7c0.3-0.7,0.7-1.2,0.8-1.8c0.1-0.8,0-1.5-0.5-2.3
		c-0.4-0.7-0.6-1.3-1.5-1.3c-0.7,0-1.3-0.2-1.9-0.3C16.4,139,15.9,139.2,15.4,139.3z"/>
	<path class="st0" d="M59.9,139.3c0.5-0.6,1.1-1.2,1.6-1.9c0.5-0.7,1.2-0.7,1.8-0.5c0.8,0.3,1.5,0.8,2.1,1.4c0.5,0.4,0.9,1,1.4,1.6
		c0.2,0.2,0.4,0.5,0.4,0.8c0.1,0.7-0.1,1.5,0,2.2c0.3,1.4-0.6,2.3-1.5,3.1c-0.7,0.6-1.5,1.2-2.3,1.8c-0.4,0.3-2.4-0.1-3-0.4
		c-0.5-0.2-1-0.2-1.4-0.7c-0.4-0.5-1-0.9-1.4-1.3c-0.1-0.1,0.1-0.4,0.2-0.5c0.2-0.1,0.5-0.1,0.7-0.1c-0.1-0.2-0.3-0.3-0.4-0.5
		c-0.4,0-0.7-0.1-1.1-0.1c-0.5-0.9,0.3-1.3,0.8-1.8c0.1-0.1,0.3-0.5,0.2-0.5c-0.7-0.8-0.6-1,0-2c0.2-0.2,0.1-0.6,0.2-1.3
		c0.4,0.2,0.8,0.5,1.2,0.6C59.5,139.2,59.7,139.2,59.9,139.3c-0.2,0.3-0.5,0.6-0.6,1c-0.2,0.5,0.3,1.3-0.6,1.6c-0.1,0,0,0.9,0.1,0.9
		c0.6,0.1,0.4,0.6,0.5,1c0.1,0.4,1.6,1.5,2.1,1.5c1.2,0.2,2.2-0.4,3.2-0.7c0.3-0.7,0.7-1.2,0.8-1.8c0.1-0.8,0-1.5-0.5-2.3
		c-0.4-0.7-0.6-1.3-1.5-1.3c-0.7,0-1.3-0.2-1.9-0.3C60.9,139,60.4,139.2,59.9,139.3z"/>
	<title>deftones-logo-vector</title>
	<desc>Created with Sketch.</desc>
	<path class="st1" d="M16,36.2c0.4,0.4,0.7,0.9,1.1,1.3c2.1,2.2,4.3,4.4,6.3,6.5c0.6-0.3,1.1-0.5,1.7-0.7c0-0.1,0-0.2,0-0.3
		c-1.2-1.2-2.3-2.5-3.6-3.6c-0.9-0.8-1.4-2.2-2.9-2.1c-0.1-1-1-2.1-1.9-2.4c0-0.2,0-0.4-0.1-0.5c-1-1-2-2.1-3-3
		c-0.4-0.4-1-0.6-1.5-0.9c-0.1,0.1-0.1,0.2-0.2,0.3c0.1,0.7-0.3,1.3,0.5,1.9c0.8,0.6,1.3,1.5,2,2.2C14.8,35.4,15.4,35.8,16,36.2z"/>
	<path class="st1" d="M5.1,81.7c-0.4,0-0.8,0-1.1,0c0,0.5,0,0.8,0,1.2c0.4,0,0.8,0,1.1,0c0,0.2,0,0.4,0,0.5
		c-0.6,0.6-1.2,1.8-1.2,2.5c0,6.1,0,32.2,0,38.3c0,0.4,0,0.7,0,1.1c1.1,0,2,0,3,0c0-0.4,0-0.8,0-1.2c0-6.6,0-33.3,0-39.9
		c0-0.5,0.3-1.1-0.5-1.4c-0.1,0,0-0.7,0.1-1c0-0.2,0.3-0.5,0.3-0.5c-0.3-0.3-0.6-0.5-0.9-0.7C5.6,80.9,5.3,81.3,5.1,81.7z"/>
	<path class="st1" d="M109.3,130.8c0,1.5,0.5,2,1.9,1.7c-0.4-0.4-0.7-0.7-1-1C110,131.1,109.6,131,109.3,130.8
		c0.1-0.8-0.5-0.6-0.9-0.6c-5.1,0-10.1,0-15.2,0c-0.3,0-0.6,0-0.7,0c-0.2,0.5-0.3,0.8-0.4,1.2c-0.2-0.4-0.3-0.7-0.6-1.2
		c-0.3,0-0.6,0-1,0c-4,0-8,0-12,0c-0.6,0-1.1-0.2-1.7-0.4c-0.4,0.1-0.8,0.4-1.2,0.4c-2.6,0-5.2,0-7.8,0c-0.3,0-0.6-0.4-1-0.4
		c-0.4-0.1-0.8-0.1-1.1,0c-0.3,0.1-0.7,0.4-1,0.4c-4.4,0-8.8,0-13.1,0c-0.5,0-0.9-0.2-1.4-0.3c-0.5,0.1-1,0.3-1.5,0.4
		c-0.4,0.1-0.8,0-1.2,0c-0.5-0.1-1.1,0.3-1.3-0.5c0-0.1-0.7,0-1.1,0.1c-0.3,0.1-0.5,0.4-0.7,0.4c-0.7,0.1-1.5,0.1-2.2,0
		c-0.6,0-1.1-0.2-1.6-0.3c-0.5,0.1-0.9,0.3-1.4,0.3c-5.5,0-11,0-16.6,0c-0.4,0-0.7,0-1.3,0c0.4,0.5,0.6,0.7,1,1.2
		c-0.6,0-0.9,0-1.3,0c0-0.4-0.1-0.7-0.1-1.1c-0.6,0-1.2,0-1.8,0c0,0.3,0.1,0.5,0,0.7c-0.3,0.4-0.5,0.8-0.9,1c-0.3,0.2-0.6,0-1-0.4
		c-0.6-0.5-0.8-1.4-1.9-1.4c-4.6,0-9.2,0-13.8,0c-0.2,0-0.3,0-0.5,0.1c-0.4,2.7,0.5,3.3,2.9,2.9c0-0.3,0.1-0.7,0.1-0.9
		c0.6-0.3,1.1-0.6,1.7-0.8c0,0.3,0,0.6,0.1,0.7c0.3,0.4,0.5,0.8,0.9,1c0.2,0.1,0.6-0.3,0.9-0.4c0.3-0.1,0.8-0.2,0.9-0.1
		c0.7,1,1.7,0.4,2.6,0.5c0.2,0,0.5-0.3,0.7-0.4c0.5-0.2,0.8-1.2,1.5-0.8c0.6,0.3,1.2,0.8,1.5,1c0.7-0.2,1.1-0.3,1.6-0.4
		c0.5-0.1,0.9,0,1.4,0c0.5-0.1,1-0.2,1.7-0.4c0,0,0.2,0.2,0.3,0.4c1.1-1.1,2.2-0.8,3.3,0c0.1-0.5,0.1-0.9,0.2-1.3
		c0.1,0,0.2,0,0.3-0.1c0.1,0.4,0.2,0.8,0.3,1.3c0.7-0.7,1.2,1.3,2,0c0,0,0.2,0,0.3,0.1c0.9,0.7,1.1,0.7,2,0c0.2-0.2,0.9-0.2,1,0
		c0.7,1.1,1.1,0.4,1.4,0.1c0.7,0.2,1.2,0.4,1.7,0.4c17.7,0,35.4,0,53.1,0c0.6,0,1.3-0.2,2-0.3c0.2,0.1,0.6,0.3,1,0.3
		c1.2,0.1,2.4,0,3.5,0c0.4,0,0.9,0.2,1.1-0.5c0-0.1,0.7,0,1.1,0.1c0.3,0.1,0.6,0.4,0.9,0.4c2.9,0,5.9,0,8.8,0c0.5,0,1.1-0.2,1.8-0.4
		c0,0,0.1,0.3,0.2,0.4c1.2,0.7,2.8-0.3,2.9-1.7C108.7,131,108.8,130.7,109.3,130.8z"/>
	<path class="st0" d="M51.8,46.5c-0.9-0.1-0.6,0.6-0.6,1c0,11.4,0,22.8,0,34.1c0,0.5,0.2,1.1,0.4,1.5c-0.1,0.5-0.4,1-0.4,1.4
		c0,6.6,0,33.1,0,39.7c0,0.3,0,0.7,0,1c1,0,2,0,3,0c0-0.9,0-1.8,0-2.7c0-0.6-0.2-1.3-0.3-2c0.1-0.3,0.3-0.7,0.3-1.1
		c0-4.8,0-29.6,0-34.3c0-0.4,0.2-0.9-0.5-1.1c-0.1,0-0.2-0.9,0-1c1-0.5,0.3-1.3,0.5-1.9C53.7,81.1,53.4,81,53,81
		c0-0.4,0-0.8,0.1-1.1c0.4,0,0.8-0.1,1.2-0.1c0-0.4,0-0.7,0-1.1c0-6.3,0-12.7,0-19c0-0.5-0.2-1-0.4-1.6c0.1-0.2,0.4-0.6,0.4-0.9
		c0-4.3,0-8.7,0-13c0-0.3-0.3-0.5-0.4-0.8c-0.2-0.3-0.5-0.7-0.8-1c0.5-0.2,1-0.2,1.2-0.4c0.9-1.1,1.9-1.9,3.4-1.6
		c0.3,0.1,0.6,0,0.9,0c0.2,0,0.4,0.2,0.6,0.3c0.9,0.9,1.3,2,1.2,3.3c-0.1,2.3-0.1,4.5,0,6.8c0.2,4.4-0.6,8.8,0.5,13.1
		c0.5,0.1,0.9,0.2,1.3,0.4c0,0.1-0.1,0.2-0.1,0.3c-0.6,0-1.2,0.1-1.9,0.1c0.2,0.3,0.3,0.4,0.4,0.5c0.1,0.4,0.2,0.8,0.1,1.2
		c0,0.3-0.4,0.6-0.4,0.8c0,5.3,0,10.6,0,16c0,0.3,0.3,0.5,0.4,0.8c0.1,0.4,0.2,0.9,0,1.1c-0.3,0.4-0.7,2.1-0.3,2.3
		c0.8,0.4,0.4,1.1,0.5,1.6c0,0.3,0,0.6,0,0.9c0.5,0,0.8,0.1,1.1,0.1c-0.1,0.1-0.1,0.1-0.2,0.2c0.4,0.6,0.8,1.1,1.2,1.7
		c0.1-0.1,0.2-0.1,0.3-0.2c0-2,0-3.9,0-5.9c-0.4,0-0.8-0.1-1.1-0.1c0-0.1-0.1-0.2-0.1-0.3c0.4-0.1,0.8-0.2,1.3-0.3c0-0.3,0-0.7,0-1
		c0-5.7,0-11.4,0-17.2c0-0.7-0.2-1.4-0.3-2.2c0.1-0.2,0.3-0.5,0.3-0.8c0-7.2,0-14.4,0-21.6c0-0.2-0.1-0.5-0.2-0.7
		c-0.3-0.6-0.6-1.2-1-1.8c-0.1-0.2-0.3-0.4-0.4-0.6c-0.5-0.7-1.2-1-1.9-1.4c-0.9-0.5-1.9-0.5-2.7-1c-0.3-0.2-1,0.3-1.5,0.5
		c-0.6,0.2-1.3,0.4-1.8,0.7c-0.5,0.4-1,0.9-1.3,1.4c-0.4,0.9-0.9,1.9-0.7,3c0,0.1-0.1,0.2-0.2,0.3c-0.3,0.4-0.6,2.5-0.4,2.9
		C51.4,46,51.6,46.3,51.8,46.5L51.8,46.5z"/>
	<path class="st1" d="M36.7,80.3c0.2-0.6,0.4-1,0.4-1.3c0-3.3,0-6.6,0-9.9c0-0.6-0.2-1.1-0.3-1.6c0.1-0.5,0.3-0.9,0.3-1.4
		c0-9.2,0-18.4,0-27.6c0-0.4,0-0.7,0.4-1.2c0.4-0.4,0.3-1.6,0-2.2c-0.4-0.9-0.6-1.8,0-2.6c0.2-0.2,0.1-0.8-0.1-1.1
		c-0.2-0.4-0.6-2.2-0.2-2.3c0.8-0.3,0.4-0.9,0.5-1.3c0.3-1.5-0.5-3.1,0.5-4.6c0.4-0.6,0.3-1.7,0.6-2.6c0.2-0.6,0.4-1.2,0.7-1.7
		c0.2-0.3,0.4-0.6,0.6-0.9c0.4-0.6,0.7-1.2,1.1-1.7c0.9-1.1,1.8-2.1,2-3.5c0.5,0,2.5-0.5,2.6-0.7c0.4-0.6,1-0.7,1.7-0.6
		c0.2,0,0.4,0,0.5-0.1c0.8-0.7,1.6-1.2,2.7-1.1c1,0.1,2.1,0,3.1,0c0.6,0,1.2,0.3,1.6-0.5c0.2-0.4,1-0.1,1.3,0.5
		c0.4-0.4,1.1-0.9,1.4-0.5c0.5,0.8,1.2,0.5,1.7,0.5c1.2,0.1,2.5,0,3.7,0c0.2,0,0.6,0,0.7,0.1c0.2,0.8,0.8,0.5,1.3,0.5
		c0.2,0,0.4,0,0.5,0.1c0.8,0.8,1.7,1.2,2.8,1.2c0.1,0,0.3,0.1,0.4,0.2c0.9,0.9,1.9,1.8,2.8,2.8c0.5,0.5,1.1,1,1.4,1.6
		c0.4,0.8,0.6,1.7,1.2,2.3c0.6,0.5,0.6,1.1,0.7,1.8c0.1,0.9,0.4,1.8,0.6,2.7c0,0,0.1,0.1,0.1,0.1c0.7,0.6,0.7,0.6,0.4,1.4
		c0,0.1,0,0.3,0.1,0.3c0.8,0.1,0.4,0.7,0.5,1.1c0.3,0.9-0.6,2.1,0.6,2.8c0,0,0,0.3-0.1,0.3c-1.1,0.4-0.3,1.2-0.5,1.9
		c0.5,0,0.8,0.1,1.4,0.1c-0.6,0.6-1,1.1-1.6,1.7c0.8,0,1.4,0.1,2,0.1c0,0.4,0,0.8-0.1,1.2c-0.7,0-1.2,0-2,0c0.3,0.3,0.4,0.4,0.5,0.5
		c0.1,0.4,0.2,0.7,0.2,1.1c-0.7,0.1-0.5,0.7-0.5,1.2c0,16.5,0,32.9,0,49.4c0,0.5,0.2,0.9,0.4,1.4c-0.1,0.5-0.3,1-0.3,1.5
		c0,4.9,0,29.8,0,34.6c0,0.4,0,0.7,0,1c0.5,0.1,1.1,0,1.1,0.2c0.2,0.7,0.9,0.7,1.1,0.4c0.4-0.4,0.9-0.6,0.9-1.4c-0.1-3,0-6.1,0-9.1
		c0-0.7-0.2-1.3-0.3-2.1c0.6-0.4,0.6-21.9-0.2-22.8c0.9-0.6,0.9-5.2,0.2-5.8c0.2-0.7,0.4-1.2,0.4-1.6c0-16.9,0-33.7,0-50.6
		c0-0.7-0.2-1.3-0.3-2.1c0.1-0.2,0.3-0.6,0.3-1c-0.1-1,0.1-2-0.5-3.1c-0.6-1,0.2-2.5-0.7-3.8c-0.4-0.6,0.2-1.5-0.6-2.2
		c-0.5-0.5-0.5-1.5-0.7-2.3c0-0.2-0.2-0.3-0.3-0.4c-0.8-0.7-1.2-1.6-1.5-2.6c0-0.2-0.2-0.3-0.3-0.4c-0.7-0.7-1.4-1.5-2.1-2.1
		c-0.9-0.7-1.3-2.1-2.8-2.2c-0.1,0-0.1-0.1-0.2-0.2c-0.8-1-1.8-1.6-3-1.6c-0.1,0-0.4,0-0.4,0c-0.4-1.2-2,0-2.3-1.2
		c-1.3-0.1-2.7-0.3-4-0.5c-2.3-0.4-4.8-0.1-7.3-0.1c-0.2,0-0.4,0.1-0.5,0.2c-0.3,0.1-0.6,0.5-0.9,0.4c-1.5-0.3-2.8,0.6-4.3,0.7
		c-0.1,0-0.2,0-0.2,0.1c-0.6,1-1.9,0.3-2.5,1.1c-0.1,0.2-0.4,0.3-0.6,0.4c-0.7,0.6-1.5,1.1-2.2,1.7c-0.1-0.1-0.1-0.1-0.2-0.2
		c0,0.4-0.1,0.7-0.1,1.1c-0.1-0.1-0.2-0.1-0.2-0.2c-0.7,0.5-1.5,0.9-1.9,1.5c-0.5,0.7-1.5,1-1.5,2.1c0,0.2-0.3,1-0.6,1.4
		c-0.6,0.8-1.1,1.5-1.1,2.6c0,0.5,0.1,0.9-0.5,1.3c-0.6,0.3-0.9,1-0.7,1.8c0.1,0.3,0.1,0.8,0,0.9c-0.9,0.4-0.5,1.3-0.5,1.9
		c-0.1,0.8,0,1.6,0,2.4c0,0.2,0,0.6-0.1,0.6c-0.8,0.1-0.5,0.7-0.5,1.1c0,7.5,0,15,0,22.5c0,0.5-0.3,1.1,0.5,1.4c0.1,0,0.1,0.9,0,0.9
		c-0.9,0.4-0.5,1.1-0.5,1.7c0,2.2,0,4.4,0,6.7c0,0.3,0,0.6,0.1,0.9c0.6,0,1.2,0.1,1.7,0.1c0,0.1,0,0.2,0.1,0.4
		c-0.4,0.1-0.8,0.2-1.4,0.4c0.5,0.4,1,0.7,1.2,1.1c0.2,0.4-0.1,1-0.2,1.7c0.6,0.5,0.6,1.2-0.2,2c-0.3,0.3-0.7,0.8-0.6,0.9
		c0.5,0.8-1.1,1.5-0.1,2.3c0,0,0,0.2-0.1,0.3c-1.2,0.6-0.4,1.1-0.1,1.4c-0.2,0.7-0.4,1.1-0.4,1.6c0,1.5,0,3,0,4.4
		c0,0.5,0.2,1,0.4,1.6c-0.9,0.5-0.2,1.6-0.4,2.5c0.4,0,0.8,0.1,1.2,0.1c0,0.4,0,0.9-0.1,1c-0.9,0.3-0.4,1.1-0.5,1.6
		c-0.1,0.5,0.1,1.3-0.1,1.4c-0.7,0.3-0.5,0.9-0.5,1.3c0,4.9,0,29.8,0,34.6c0,0.4,0,0.7,0,1c0.7,0.4,1.6-0.3,2,0.7c0,0,0.3,0,0.4-0.1
		c0.6-0.4,0.7-1,0.6-1.7c0-2,0-4,0-6c0-0.5-0.2-1.1-0.4-1.7c0-0.1,0.4-0.3,0.4-0.6c0-2.4,0-24.9,0-27.4c-0.5-0.1-0.8-0.1-1.2-0.1
		c0-0.1-0.1-0.2-0.1-0.3c0.4-0.1,0.8-0.2,1.2-0.3c0,0,0.1-0.1,0.1-0.2c0-0.9,0.1-1.9,0-2.8c0-0.5-0.2-1-0.4-1.6
		C37.5,82.4,37.5,80.8,36.7,80.3z"/>
	<path class="st1" d="M34.1,170.9c0.1,0.1,0.1,0.2,0.2,0.3c0.9,0.1,0.9,0.1,1.8,1.1c0.1,0.1,0.3,0.2,0.4,0.2c0.8-0.6,1.5,1.1,2.3,0
		c0.1,0.1,0.3,0.2,0.3,0.3c0.2,0.5,0.3,0.2,0.6,0.1c0.4-0.1,0.5-1.9,1.4-0.4c0,0.1,0.3,0.1,0.5,0c0.9-0.2,1.8,0.4,2.6-0.5
		c0.4-0.4,1.3-0.3,2.1-0.4c0,0,0,0.2,0.1,0.4c0,0.2,0,0.4,0.1,0.7c0.4-0.1,0.9-0.1,1.1-0.3c0.5-0.5,0.8-0.5,1.3,0
		c0.5,0.4,1.2,0.6,1.8,0.8c0.1,0,0.4-0.2,0.6-0.3c0.2-0.1,0.4-0.1,0.6-0.1c0.3,0.1,0.5,0.4,0.8,0.4c1.1,0,2.3,0.1,3.4,0
		c0.5,0,1.1-0.2,1.5-0.4c0.5,0.1,0.9,0.4,1.4,0.4c3,0,5.9,0,8.9,0c0.3,0,0.6-0.3,1-0.4c0.3-0.1,1-0.2,1-0.1c0.3,0.8,1,0.5,1.5,0.5
		c2.5,0,5,0,7.5,0c0.6,0,1.3-0.2,2-0.3c0.3,0.1,0.7,0.3,1.1,0.3c5.5,0,11,0,16.6,0c0.5,0,1.1-0.2,1.7-0.4c0.1,0.1,0.5,0.4,0.8,0.4
		c3.8,0,7.6,0,11.4,0c0.2,0,0.4-0.2,0.7-0.4c1-0.6,0.5-1.6,0.5-2.4c0-0.3-0.5-0.6-0.7-0.9c-0.2,0.2-0.4,0.5-0.6,0.5
		c-0.4,0-0.8,0-1.1-0.1c-0.4-0.2-2.7-0.6-2.9-0.3c-0.7,1.2-1.1,0.4-1.6-0.1c-0.6,0.7-1.1,0.8-1.5,0.4c-0.3-0.3-2.6-0.5-3-0.3
		c-0.9,0.7-2,0.7-2.9-0.1c-0.3,0.6-1,1-1.3,0.5c-0.4-0.6-0.8-0.5-1.1-0.4c-2.2,0.3-4.5-0.7-6.7,0.5c-0.5,0.3-1.3,0.1-2,0
		c-0.4,0-1,0-1-0.1c-0.2-0.8-0.8-0.5-1.2-0.5c-5.6,0-11.1,0-16.7,0c-0.4,0-1-0.3-1.1,0.5c0,0.1-0.7,0-1.1,0
		c-0.3-0.1-0.5-0.4-0.8-0.4c-4.9,0-9.9,0-14.8,0c-0.2,0-0.6,0-0.7,0.2c-0.6,0.6-2.4,0.5-3.1,0c-0.4-0.3-1.2-0.1-1.7,0.1
		c-0.4,0.2-3.9,0.5-4.3,0.1c-0.3-0.4-2.8-0.7-2.9-0.3c-0.3,0.8-0.9,0.5-1.3,0.5c-0.5,0-1-0.1-1.5,0
		C35.1,170.3,34.6,170.7,34.1,170.9z"/>
	<path class="st1" d="M46.4,27.1c-0.1,0.5-0.1,1.1-0.2,1.1c-1.1,0.3-1.1,1.5-1.6,2.2c-0.5,0.7-1.1,1.7-0.7,2.8c0,0.1,0,0.4-0.1,0.5
		c-0.8,0.2-0.5,0.8-0.5,1.2c0,5.3,0,10.6,0,15.9c0,0.5,0.2,1.1,0.4,1.5c-0.1,0.5-0.4,1-0.4,1.4c0,9.4,0,18.8,0,28.2
		c0,0.5,0.2,0.9,0.4,1.4c-0.1,0.3-0.3,0.8-0.4,1.2c0.9,0.2,1.6,0.4,2.4,0.6c0,0,0.1-0.2,0.3-0.4c0.1-0.2,0.3-0.3,0.6-0.5
		c-0.6-0.1-1-0.1-1.4-0.2c0-0.1,0-0.2,0-0.3c0.1-0.6,1.9-0.6,0.6-1.7c0,0,0-0.2,0.1-0.3c0.8-0.2,0.5-0.8,0.5-1.3c0-13,0-25.9,0-38.9
		c0-0.5-0.2-1-0.3-1.5c0.1-0.5,0.3-0.9,0.3-1.4c0.1-1.2,0-2.4,0-3.5c0-0.2-0.1-0.5,0-0.6c0.9-0.8,0.6-2,1.2-2.8
		c0.4-0.5,0.7-1.1,1.1-1.6c0.4-0.6,0.9-1.1,1.4-1.6c0.5-0.5,0.9-1,1.5-1.4c0.8-0.5,1.7-0.7,2.4-1c0.4,0.1,0.8,0.3,1.2,0.4
		c0.6,0.1,1.2,0.1,1.7,0c2.1-0.4,4.1,0.6,6.1,0.6c0.1,0,0.2,0.1,0.3,0.2c0.6,0.5,1.1,0.9,1.6,1.4c0.1-0.1,0.1-0.1,0.2-0.2
		c0,0.3,0,0.7,0.1,1c1,0.3,1.9,0.5,2.9,0.8c0-0.1,0-0.2,0-0.4c0.2-0.5,0.5-1,0.8-1.5c-0.4-0.1-0.8-0.1-1.1-0.2c0-0.4,0-0.9-0.1-1
		c-1-0.5-1.4-1.7-2.6-2.1c-0.8-0.3-1.5-1.3-2.6-1.1c-0.3-0.9-1.1-0.5-1.7-0.5c-0.5-0.1-1.1,0-1.6,0c-0.6-0.1-1.5,0.4-1.9-0.6
		c0-0.1-0.7-0.1-0.7,0c-0.7,1.1-1.7,0.4-2.6,0.6c-0.2,0-0.5,0-0.7,0.1c-0.7,0.8-1.7,0.7-2.6,1c-0.7,0.2-1.2,0.6-1.7,1
		C48,26.2,47.7,27.4,46.4,27.1z"/>
	<path class="st1" d="M71.6,119.1c-0.2-0.6-0.4-1-0.5-1.4c-0.1-1.2,0-2.4,0-3.5c0-0.4-0.3-1,0.5-1.1c-0.4-0.6-0.3-21.1,0-21.7
		c-0.8-0.1-0.5-0.8-0.5-1.2c0-17,0-34.1,0-51.1c0-0.4,0.3-1.1-0.5-1.2c0,0-0.1-0.3,0-0.4c0.4-0.6,0.1-1-0.6-1.3
		c0,0.6-0.1,1.2-0.1,1.7c-1.6,0.1-2,0.7-1.6,2.4c0.4,0,0.7,0.1,1.1,0.1c-0.1,0.2-0.1,0.4-0.2,0.5c-0.8,0.4-1.1,1-1.1,2
		c0,11.5,0,23,0,34.5c0,0.4-0.3,1,0.5,1.2c0,0-0.1,0.7-0.1,1.1c-0.1,0.2-0.3,0.4-0.3,0.6c0,0.6,0,1.2,0,1.8c0.5,0.1,0.8,0.1,1.2,0.1
		c0,0.1,0,0.2,0.1,0.3c-0.4,0.1-0.8,0.2-1.3,0.3c0,2.1,0,4.2,0,6.3c0,0.5-0.4,1.3,0.5,1.6c0,0-0.1,0.7-0.3,1
		c-0.3,0.5-0.5,20.9,0.1,21.2c0.1,0.1,0.2,0.2,0.3,0.3c-0.8,0.5-0.9,1.4-0.2,2.1c0.1,0.1,0,0.4-0.1,0.6c-0.5,0.5-0.4,2,0.1,2.5
		c0.3,0.3,0.8,0.7,0.8,0.9c-0.3,0.6-0.7,1.2-1.2,1.9c0.2,0.2,0.6,0.4,0.6,0.5c-0.2,0.7,0.6,1.7-0.5,2.2c-0.1,0.1-0.1,0.7,0,1
		c0.1,0.3,0.5,0.4,0.8,0.7c0-0.1,0-0.2,0-0.3c0.5-0.1,1-0.2,1.5-0.4c0.4-0.2,0.9-0.5,1.2-0.8c0.1-0.2,0-0.8-0.2-0.9
		c-0.5-0.5-0.4-0.7,0-1.3c0.3-0.4,0.4-1.5,0.1-1.7C70.6,119.8,71.3,119.5,71.6,119.1z"/>
	<path class="st1" d="M96,92.6c0-1.7,0-3.3,0-4.9c0-0.4-0.3-1.1,0.5-1.2c-0.5-0.6-0.2-1.1,0-1.7c-0.7-0.1-0.5-0.6-0.5-1
		c0-1.3,0-2.6,0-3.8c0-0.5,0.3-1.1-0.5-1.4c-0.1,0-0.1-0.9,0-1c0.7-0.2,0.5-0.7,0.5-1.1c0-6.6,0-13.2,0-19.8c0-1.3-0.4-2.5-0.6-3.8
		c0-0.1-0.1-0.1-0.2-0.2c-0.3-0.5-0.8-1-1-1.6c-0.3-0.8-0.5-1.7-1.2-2.3c-0.9-0.8-1.4-2.2-2.8-2.2c-0.1-0.8-1-0.4-1.4-0.7
		c-0.7-0.5-1.3-1.1-2.3-1.1c-0.6,0-1.6,0.2-1.8-0.1c-0.7-1-1-0.5-1.6,0.1c-0.5,0.5-0.5,1.9-0.1,2.5c0.6,0.9,1.5,0.5,2.3,0.6
		c0.3,0.1,0.7,0.1,1,0.2c0.3,0.1,0.5,0.4,0.7,0.4c1.3-0.1,1.8,1.2,2.9,1.6c0.6,0.2,0.8,1.2,1.3,1.8c0.1,0.2,0.5,0.3,0.6,0.5
		c0.3,0.9,0.9,1.8,0.6,2.9c0,0.1,0.1,0.3,0.1,0.4c0.1,0.3,0.4,0.6,0.4,0.9c0,1.8,0,3.6,0,5.5c0,0.3,0.4,0.6,0.4,1
		c0.1,0.4,0.1,0.8,0,1.1c-0.1,0.3-0.4,0.5-0.4,0.8c0,2.5,0,5.1,0,7.6c0,0.2,0,0.5,0.2,0.7c0.3,0.4,0.6,2,0.3,2.3
		c-0.7,1.1-0.7,1.6,0,2.7c0.1,0.2,0,0.8-0.2,1.1c-0.4,0.5-0.5,0.8,0,1.3c0.2,0.2,0.3,0.9,0.1,1.1c-0.6,0.9-0.6,2.3,0,3.2
		c0.2,0.2,0.2,0.9,0.1,0.9c-1,0.5-0.5,1.3-0.5,2c0,0.7-0.4,1.7,0.7,2.1c-1.2,0.8-0.5,1.8-0.7,2.7c0.5,0.1,0.8,0.1,1.2,0.1
		c0,0.1,0,0.3,0,0.3c-0.4,0.6-0.8,21.1-1.1,21.7c-0.1,0.2,0,0.8,0.1,0.8c0.8,0.2,0.5,0.7,0.4,1.1c-0.1,0.4-0.3,0.8-0.6,1.5
		c0.9-0.3,1.6-0.5,2.4-0.8c0.1,0.1,0.2,0.2,0.3,0.4c-0.2,0.3-0.5,0.7-0.7,1c-0.3,0.5-1.1,0.9-0.6,1.7c0.2,0.3,0.4,0.7,0.7,1.1
		c-0.7,0.1-1,0.2-1.5,0.2c1,1.2,1,2.3-0.1,3.5c1.1,0,2.1,0,3.1,0c0-0.6,0-1.2,0-1.7c-0.4,0-0.8-0.1-1.2-0.1c0.7-1.1,1.2-2.1,0.1-3.1
		c0,0,0.2-0.3,0.3-0.4c0.7-0.6,1.1-1.8,0.8-2.3c-0.3-0.4-0.5-0.8-0.9-1.3c-0.1,0-0.5-0.1-0.8-0.1c0-0.1-0.1-0.2-0.1-0.3
		c0.6-0.4,1.2-0.7,1.9-1.1c0-0.1,0-0.5,0-1.1c-0.7,0.3-1.2,0.5-1.7,0.8c0-0.6,0-21.1,0-21.7C95.2,92.6,95.5,92.6,96,92.6z"/>
	<path class="st1" d="M110.5,114.4c0.2-1.6,0.3-23-1.5-24.1c0.7-0.1,1.4-0.1,1.4-0.1c0.1-2,0.1-3.9,0.1-5.9c0-2,0.1-4,0-6
		c-0.1-1.8,0.6-3.7-0.5-5.5c-0.4-0.7-0.4-1.6-0.7-2.3c0-0.1-0.1-0.2-0.2-0.3c-1.1-0.8-1.7-2.3-3.3-2.6c-0.6-0.1-1-0.8-1.5-1
		c-0.8-0.2-1.7,0-2.6-0.6c-0.6-0.4-1.7-0.1-2.5-0.1c0,1.1,0,2,0,3c0.2,0,0.3,0.1,0.4,0c1.5-0.4,2.7,0.7,4.1,0.6c0.1,0,0.2,0,0.2,0.1
		c0.3,1.1,1.7,0.9,2.2,1.8c0.2,0.3,0.2,0.8,0.5,1.2c0.6,0.7,1.1,1.5,1.1,2.5c0,5.6,0,11.1,0,16.7c0,0.4,0,0.7,0.5,1
		c1.1,0.7,1.1,21.2,0.1,22.1c-0.6,0.5-0.5,1-0.6,1.6c0,2.6,0,5.2,0,7.8c0,0.4,0,0.8,0,1.2c1.1,0,2,0,3,0c0-2.6,0-5.2,0-7.8
		c-0.4,0-0.8,0-1.3,0c0.3,0.4,0.6,0.7,0.9,1.1c-0.6,0-0.9,0-1.3,0c0-0.6,0-1.2,0-1.8c0.6,0,1.1,0,1.7,0c0-0.4,0-0.8,0-1.1
		c-0.4,0-0.8-0.1-1.1-0.1c0-0.4,0-0.8,0-1.1C109.8,114.4,110.1,114.4,110.5,114.4z"/>
	<path class="st1" d="M60,154c0.1-0.1,0.2-0.2,0.3-0.3c0-0.8,0.1-1.6,0-2.4c-0.1-0.4-0.6-1.1-0.8-1.1c-1,0.1-2.1-0.6-2.9,0.4
		c-0.1,0.2-0.8,0.1-1,0c-0.9-0.7-2.9-0.7-3.8,0c-0.1,0.1-0.4-0.1-0.5-0.2c-0.2-0.1-0.3-0.3-0.4-0.4c-0.1,0-0.2,0.1-0.2,0.1
		c0,0.4,0,0.7,0,1.1c0,3.5,0,7,0,10.5c0,0.5,0.2,1,0.4,1.6c-1,0.8-0.1,2-0.5,3.2c2.8,0,5.5,0,8.2,0c0.9,0,1.6-0.2,2.2-1
		c-1.4-0.6-0.5-1.3,0-1.9c-0.1-0.1-0.2-0.1-0.2-0.1c-0.8-0.2-1.8,0.4-2.5-0.6c0-0.1-0.6,0.2-0.9,0.3c-0.1,0.1-0.3,0.2-0.4,0.2
		c-1.1,0-2.1,0-3.2,0c0-1.5,0-2.8,0-4.3c2.2,0,4.4,0,6.5,0c0-1,0-2,0-3c-2.2,0-4.4,0-6.5,0c0-0.8,0-1.6,0-2.4c1,0,1.9,0,2.8,0
		c0.6,0,1.3,0.4,1.6-0.5c0-0.1,0.7,0,1,0.1C59.3,153.5,59.6,153.8,60,154z"/>
	<path class="st1" d="M20.8,149.9c-1.3,0.3-2.4,0.6-3.6,0.9c0,1.2,0,2.4,0,3.6c0,0.5,0.2,1,0.4,1.6c-0.6,0.5-0.5,0.5,0.1,1.4
		c0.2,0.2,0,0.7-0.1,1.1c-0.1,0.3-0.4,0.6-0.4,0.8c0,0.9,0.1,1.8,0.5,2.7c0.4,1,0.6,2,1.3,2.8c0.8,0.9,1.7,1.6,3,1.5
		c1.1-0.1,2.2,0.3,3.4-0.5c0.9-0.5,1.4-0.9,1.5-1.9c1.4-0.1,1.7-0.5,1.7-1.9c0-3.3,0-6.6,0-9.9c0-0.7,0-1.4,0-2.1c-1.1,0-2,0-3.1,0
		c0,4.3,0,8.4,0,12.3c-0.6,0.4-1,0.7-1.4,1c-1.2,0.6-3.4-0.8-3.4-2.1C20.8,157.7,20.8,154,20.8,149.9z"/>
	<path class="st1" d="M45.8,150.2c-0.9,0-1.7,0-2.5,0c-1.2,0-2.2,0.9-2.5,2c0,0.1-0.2,0.3-0.3,0.4c-0.8,0.7-1.1,1.6-1.5,2.5
		c-0.2,0.4,0.3,1-0.5,1.2c0.1,0.2,0.1,0.4,0.2,0.5c0.2,0.1,0.4,0.1,0.7,0.1c-0.1,0.1-0.3,0.3-0.4,0.4c-0.2,0-0.4,0.1-0.6,0.1
		c-0.4-0.2-0.8-0.5-1.2-0.7c0.2-0.2,0.5-0.4,0.5-0.6c0-0.4,0-0.8-0.2-1.1c-0.4-0.5-0.5-0.8,0.1-1.2c0.1-0.1,0.3-0.2,0.3-0.3
		c0-1.1,0-2.2,0-3.5c-0.4,0.3-0.5,0.5-0.6,0.5c-0.4,0.1-0.9,0.3-1.2,0.2c-0.8-0.6-0.8-0.7-1.6,0.2c-0.3,0.4-0.3,1.2-0.1,1.7
		c0.2,0.5,0.7,2.7,0.4,2.9c-0.9,0.5-0.5,1.3-0.5,1.9c0,0.7-0.4,1.6,0.5,2.2c0.1,0-0.2,0.6-0.3,1c-0.1,0.2-0.2,0.3-0.2,0.5
		c0,1.8,0,3.7,0,5.5c1.3,0,2.4,0,3.7,0c0-2,0-4,0-6c0.1,0,0.2-0.1,0.3-0.1c0.3,0.8,1.5,0.9,1.5,2c0,0.2,0.2,0.3,0.3,0.5
		c0.6,0.8,1.8,1.3,1.5,2.6c0,0.3,0.6,0.9,0.9,0.9c1.3,0.1,2.6,0,3.9,0c-0.6-0.9-1.1-1.6-1.7-2.4c-0.1,0-0.4,0-0.9-0.1
		c0.2-1.2-0.3-1.9-1.1-2.6c-0.6-0.6-0.9-1.6-1.3-2.4c-0.1-0.1-0.2-0.3-0.3-0.4c-0.4-0.5-1.3-0.8-0.8-1.8c0.3,0,0.7-0.1,1-0.1
		c-0.1-0.1-0.1-0.1-0.2-0.2c0.3-0.4,0.6-0.7,0.8-1.1c0.3-0.8,1.5-1,1.3-2.1c0,0,0.1-0.1,0.2-0.2C44.6,152.6,45,151.4,45.8,150.2z"/>
	<path class="st1" d="M23.1,169.9c-0.7,0.1-1.2,0.2-1.7,0.1c-0.3,0-0.5-0.4-0.8-0.4c-2.1,0-4.2,0-6.4,0c-0.2,0-0.5,0-0.7,0.1
		c-0.9,0.7-2.8,0.7-3.8,0c-0.2-0.2-0.9-0.1-1,0.1c-0.5,0.7-1.5,0.5-1.7,0.3c-0.4-0.7-1-0.5-1.5-0.5c-1.1,0-2.2,0-3.3,0
		c-0.2,0-0.5,0-0.7,0.1c-0.5,0.4-1,1.9-0.6,2.6c0.3,0.7,1,1,1.8,0.9c1.3-0.1,2.6,0,3.8,0c0.3,0,0.7-0.4,1-0.4c0.4-0.1,0.8,0,1.2,0.1
		c0.2,0.1,0.4,0.4,0.7,0.4c5,0,10,0,15.1,0c0.2,0,0.5-0.1,0.7-0.3c0.5-0.5,1.3-0.4,1.9,0c0.3,0.2,0.8,0.1,1.1,0.1
		c0.3-0.1,0.6-0.4,0.9-0.4c1.7,0,3.4,0,5,0c0.3,0,0.5-0.1,0.8-0.2c0-0.1,0-0.3-0.1-0.4c-0.8,0-1.6,0-2.3,0c0-0.5,0-0.8,0-1.1
		c0.4-0.1,0.8-0.1,1.3-0.2c-0.4-0.4-0.6-0.9-0.9-1c-0.3-0.1-0.7,0-1,0.1c-0.3,0.1-0.6,0.4-0.9,0.4c-2.1,0-4.2,0-6.4,0
		C24,170.1,23.4,169.9,23.1,169.9z"/>
	<path class="st1" d="M99.6,166.2c0,0.1,0.1,0.2,0.1,0.2c1.2,0,2.3,0,3.2,0c0.4-0.6,0.7-1,0.9-1.4c0.2-0.4,0.3-1,0.7-1.3
		c0.4-0.4,0.5-0.8,0.7-1.4c0.1-0.3,0.6-0.5,0.9-0.7c0.8,1.6,1.5,3.2,2.3,4.8c1,0,2.2,0,3.7,0c-0.4-0.6-0.6-1.1-0.9-1.5
		c-0.4-0.9-0.9-1.7-1.3-2.6c-0.1-0.1-0.4-0.1-0.5-0.3c-0.4-1.1-0.8-2.1-1.3-3.2c0-0.1-0.2-0.2-0.3-0.3c-0.5-0.4-0.4-1.3,0.1-1.9
		c0.6-0.7,1.1-1.4,1.4-2.2c0.2-0.8,1.1-1.4,0.7-2.4c0,0,0.2-0.2,0.3-0.3c0.4-0.5,1.2-0.8,0.7-1.8c-0.7,0-1.3,0-2,0
		c-0.9,0-2.1,1.2-2.1,2.1c0,1.1-0.6,1.6-1.8,1.4c-0.2-0.9-0.4-1.8-0.7-2.7c-0.1-0.3-0.6-0.7-1-0.8c-0.8-0.1-1.7,0-2.5,0
		c-0.3,1.6,0.5,2.6,1.3,3.6c0.2,0.2,0.4,0.5,0.4,0.7c0,1,0.7,1.6,1,2.4c0.3,0.7,0.1,1.6,0,2.3c-0.1,0.6-0.6,1.1-1,1.7
		c-0.5,0.8-0.9,1.7-1.4,2.5c-0.1,0.2-0.5,0.5-0.4,0.7c0.2,0.9-0.4,1.2-0.9,1.7C99.9,166,99.7,166.1,99.6,166.2z"/>
	<path class="st1" d="M21.4,125.3c0-0.4,0-0.8,0-1.1c0-8.1,0-36.3,0-44.4c0-0.7-0.4-1.5-0.7-2.2c-0.2-0.4-0.4-0.7-0.7-1.1
		c0.1-0.1,0.2-0.1,0.3-0.2c0.3,0.2,0.6,0.5,0.8,0.7c0.1-0.1,0.2-0.2,0.4-0.2c-0.2-0.4-0.5-0.7-0.6-1.1c-0.1-0.3-0.1-0.8,0-1.1
		c0.1-0.4,0.4-0.7,0.7-1.2c-0.7-0.1-1-0.1-1.6-0.2c0.5-0.6,1-1,1.4-1.5c-0.1-0.1-0.1-0.2-0.2-0.3c-0.8,0.3-1.5,0.5-2.2,0.8
		c-0.3,0.1-0.6,0.6-0.6,0.9c-0.1,1,0,2.1,0,3.1c0.5,0,0.8,0.1,1.1,0.1c0.6,0.7-1,1.5,0.1,2.1c-0.1,0.1-0.2,0.2-0.3,0.2
		c-0.6,0.5-1,1-1,2c0.1,7.8,0,35.7,0,43.5c0,0.4,0,0.8,0,1.2C19.5,125.3,20.4,125.3,21.4,125.3z"/>
	<path class="st1" d="M8.7,150.2c0,0.5,0,0.8,0,1.2c0,3.6,0,7.1,0,10.7c0,0.9-0.6,1.4-1.4,1.5c-1.2,0.1-1.4-1.1-2.2-1.5
		c-0.5-0.2-1.3-0.4-1.6-0.2c-0.3,0.2-1.1,0.7-0.7,1.4c0.3,0.7,0.7,1.3,1.2,1.9c0.8,0.9,1.6,1.8,3.1,1.4c0.9-0.2,1.8,0.2,2.7-0.5
		c0.4-0.3,1.1-0.5,1.4-1.1c0.3-0.5,0.5-1.1,0.6-1.7c0.4-2-0.5-4.1,0.5-6.1c0.4-0.7,0.6-2.2-0.6-3c0.3-0.2,0.5-0.4,0.7-0.5
		c-0.1,0-0.2,0-0.3-0.1c0-0.5-0.2-1-0.1-1.5c0-0.3,0.5-0.7,0.4-0.9c-0.2-0.4-0.6-0.8-1-0.9C10.5,150.1,9.6,150.2,8.7,150.2z"/>
	<path class="st1" d="M46.2,86c-0.3,0-0.7,0-1.1,0c0,0.4-0.1,0.8-0.1,1.3c-0.4-0.3-0.9-0.5-1.1-0.9c-0.1-0.1,0.4-0.6,0.6-1
		c-0.5,0-0.9,0-1.2,0c0,6.9,0,33.7,0,40.7c0.7-0.6,1.4-1.4,2-0.1c0.8-0.6,1-1.3,1-2.2c-0.1-2.5,0-5,0-7.6c0-0.5,0.3-1.1-0.5-1.3
		c0,0,0.1-0.7,0.2-1.1c0-0.2,0.3-0.3,0.3-0.4c0-1.7,0-23.3,0-25c-0.5,0-0.9,0-1.3,0c-0.2,0-0.3-0.2-0.5-0.2c0.2-0.1,0.3-0.3,0.5-0.3
		C45.9,87.6,46.3,87,46.2,86z"/>
	<path class="st1" d="M21.8,55.2c-0.1-0.3-0.4-0.9-0.3-1c0.7-0.6,1-1.5,1.6-2.2c0.4-0.6,0.9-1.1,1.4-1.5c1-0.8,1.5-2.4,3.3-2.1
		c0,0,0.1,0,0.1,0c0.7-1.1,1.8-0.4,2.7-0.6c0.2-0.1,0.4-0.2,0.6-0.3c1-0.6,0.6-1.5,0.6-2.4c0-0.6-1.3-1.3-1.5-0.9
		c-0.7,1-1.6,0.4-2.4,0.6c-0.3,0.1-0.6,0-0.8,0.2c-0.6,0.3-1.2,0.7-1.8,1c-0.8,0.5-1.7,1-2.5,1.5c-0.9,0.6-1.1,1.7-1.8,2.5
		c-0.2,0.2-0.5,0.3-0.6,0.5c-0.4,0.8-0.7,1.7-1.1,2.6c0.1,0.1,0.3,0.2,0.5,0.4c-0.8,0.7-1.4,3.2-1.1,4.5c0.6,0,1.1,0,1.9,0
		c-0.4-0.4-0.6-0.7-0.8-0.9c0.1-0.1,0.1-0.2,0.2-0.3c0.5,0.2,1.1,0.4,1.5,0.6C21.5,56.7,21.6,56,21.8,55.2z"/>
	<path class="st1" d="M53,137.3c-1.2,0.6-1.3,1.8-1.8,2.6c-0.5,0.9-1,1.9-1.5,2.9c-0.2,0-0.5,0-0.6,0c-0.6-1.1-1.1-2-1.7-2.9
		c-0.1-0.2-0.4-0.2-0.5-0.4c-0.3-0.7-0.5-1.4-0.7-2c0-0.1-0.2-0.1-0.4-0.1c0,0.6,0.1,1.5-0.2,1.6c-0.8,0.5-0.4,1.1-0.5,1.6
		c-0.1,0.6,0.2,1.6-0.1,1.9c-0.8,0.7-0.4,1.5-0.5,2.3c0,0.1,0,0.2-0.1,0.3c-1.1,0.7-0.3,1.7-0.6,2.5c0.7,0,1.2,0,1.5,0
		c0.4-0.5,0.8-0.9,0.9-1.3c0.1-0.7,0-1.4,0.1-2.1c0.1-0.5,0.5-1,0.8-1.5c0.1,0,0.2,0.1,0.3,0.1c0,0.6-0.1,1.2,0.1,1.6
		c0.4,0.9,0.9,1.6,1.5,2.6c0.5-0.7,1-1.5,1.4-2.2c0.3-0.5,0.5-1,0.8-1.5c1,0.6,1.2,1.4,1.1,2.3c-0.1,0.7,0.1,1.3,0.6,1.7
		c0.3,0.2,0.8,0.3,1,0.1c0.3-0.2,0.5-0.6,0.7-1c-1.1-0.5-0.4-1.5-0.6-2.3c-0.1-0.3,0-0.8-0.1-0.8c-0.8-0.1-0.4-0.7-0.5-1.1
		c-0.1-0.6,0.2-1.6-0.1-1.8c-0.7-0.5-0.4-1-0.5-1.4C52.9,138.6,53,138.1,53,137.3z"/>
	<path class="st1" d="M6.9,78.5c0-1.2,0-2.5,0-3.8c0-0.3,0-0.6,0.1-0.8c0.3-0.5,0.9-1,1-1.5c0.2-1,0.8-1.2,1.6-1.7
		c0.8-0.5,1.6-0.9,2.5-1.3c0.7-0.3,1.3-0.3,1.9-0.4c0.4-0.1,0.8,0,1.2,0c0-1.1,0-2.1,0-3.1c-1.3,0.5-2.7-0.4-3.9,0.6
		c-0.6,0.5-2,0.2-2.4,0.8c-0.7,0.9-1.8,1-2.5,1.8c-0.6,0.8-1.8,1.3-1.4,2.6c0,0.1-0.1,0.3-0.2,0.4c-0.3,0.6-0.8,1.2-1,1.9
		c-0.2,0.9-0.1,2,0,2.9c0.1,0.4,0.5,1,0.9,1.2C5.4,78.3,6.1,78.3,6.9,78.5z"/>
	<path class="st1" d="M109.9,141.6c-0.2,0-0.3,0.1-0.3,0c-0.6-0.5-1-1.4-2-1.2c0,0-0.1-0.2-0.1-0.2c-0.4-0.6-0.7-1.3-1.2-1.9
		c-0.8-0.8-1.4-2-3-1.3c0,0.3,0,0.6,0,0.9c0,2.6,0,5.1,0,7.7c0,0.9,0.1,1.7,0.9,2.2c0.8-0.5,1-1.2,0.9-2.2c-0.1-1.5,0-2.9,0-4.5
		c0.5,0,0.9-0.1,1.1,0.1c0.7,0.6,1.3,1.3,1.9,2.1c0.6,0.8,1.2,1.6,1.8,2.4c0.4,0.5,0.8,1.3,1.8,0.7c0-2.7,0-5.4,0-8
		c0-1.1-0.6-1.6-1.8-1.4C109.9,138.5,109.9,140.1,109.9,141.6z"/>
	<path class="st1" d="M84.5,139.2c1.4,0,2.8,0,4.1,0c0-0.8,0-1.6,0-2.3c-2,0-4,0-6,0c0,3.1,0,6.1,0,9.1c0,1.4,0.4,1.8,1.8,1.8
		c0.9,0,2,0.5,2.7-0.6c0.4-0.6,0.8-0.6,1.2,0c0,0,0.1,0,0.2,0c0-0.6,0-1.1,0-1.8c-1.4,0-2.7,0-4.1,0c0-0.8,0-1.6,0-2.4
		c1.4,0,2.8,0,4.1,0c0-0.8,0-1.6,0-2.4c-1.4,0-2.8,0-4.2,0C84.5,140,84.5,139.7,84.5,139.2z"/>
	<path class="st1" d="M31.7,136.8c-1.1,0-2.1,0-3.1,0c-0.1,0-0.3,0-0.4,0.1c-0.6,0.8-1.7,0.8-2.2,1.7c-0.2,0.4-0.6,2.7-0.2,3
		c0.5,0.4,0.9,1.1,1.5,1.2c1.2,0.3,2.6,0.4,3.8,0.5c0.1,1.4-0.4,1.9-1.6,1.9c-0.9,0-1.8-0.1-2.7,0c-0.4,0.1-0.8,0.5-1.1,0.8
		c-0.1,0.2-0.1,0.6,0.1,0.9c0.6,0.9,1.2,0.9,2,0.1c0.5,0.5,0.9,1.2,1.5,0.1c0.1-0.1,0.3-0.1,0.4-0.1c1.2,0.2,2.1-0.2,2.8-1.2
		c0.3-0.4,0.5-2.7,0.2-3c-0.5-0.4-1-0.9-1.6-1.2c-0.5-0.3-1.1-0.3-1.5-0.4c-0.5,0.1-1.2,0.4-1.4,0.2c-0.4-0.3-1.1-0.8-0.7-1.5
		c0.2-0.4,0.5-0.8,0.9-1.3c0.9,0.2,2.1,0.4,3.3,0.7C31.7,138.4,31.7,137.7,31.7,136.8z"/>
	<path class="st1" d="M100.3,27.8c-0.1,0.4,0,0.9-0.2,1.1c-0.6,0.7-1.4,1.2-2.1,1.9c-1.1,1.1-2.2,2.1-3.2,3.3
		c-0.4,0.4-0.4,1.1-0.8,1.5c-1.9,1.9-3.9,3.7-5.8,5.6c-0.4,0.4-0.5,1-0.9,1.7c1.3-0.1,2.3,0.3,3.1-0.6c0.4-0.5,0.9-0.9,1.4-1.4
		c0.4-0.4,1.1-0.8,1.2-1.3c0.1-1.2,1-1.5,1.7-2.2c1.1-1.1,2.2-2.1,3.2-3.3c0.4-0.4,0.4-1.1,0.8-1.5c0.9-0.9,1.9-1.7,2.8-2.6
		c0.3-0.3,0.6-0.6,0.7-0.9C102.2,28.3,101.4,27.7,100.3,27.8z"/>
	<path class="st1" d="M3.9,44.1c0.3,0,0.7-0.1,0.8,0c0.6,0.6,1.5,0.9,2,1.5C7.5,46.3,8.4,46.9,9,47c1.1,0.2,1.4,1.7,2.6,1.4
		c0.3,1.1,1.7,0.9,2.2,1.7c0.2,0.2,0.5,0.6,0.6,0.6c0.8-0.1,1,0.6,1.5,0.9c0.3,0.2,0.7,0.4,0.9,0.3c0.4-0.2,0.7-0.6,0.9-0.9
		c0.1-0.2-0.1-0.6-0.2-0.8c-0.3-0.5-1.2-0.5-1.4-0.7c-0.6-1-1.7-1-2.4-1.7c-0.2-0.2-0.3-0.5-0.5-0.6c-0.6-0.3-1.6-0.3-1.9-0.7
		c-0.7-1-1.8-1.1-2.5-1.8c-0.2-0.2-0.3-0.5-0.5-0.5c-0.8,0.2-0.9-0.6-1.4-0.8c-0.6-0.3-1.2-0.8-1.8-1C4.4,42.1,3.8,42.9,3.9,44.1z"
		/>
	<path class="st1" d="M109,41.4c0.2,0,0.3,0,0.5,0.1c-0.3-0.5-0.5-1.1-0.9-1.5c-0.5-0.4-0.9,0-1.3,0.5c-0.5,0.5-1.3,0.8-1.9,1.3
		c-0.4,0.3-0.8,1.1-1.1,1.1c-1.2-0.1-1.4,1.7-2.7,1.4c-0.3,1.1-1.6,1-2.2,1.7c-0.7,0.7-1.7,1.2-2.5,1.9c-0.3,0.3-0.8,0.7-0.8,1
		c0,0.5,0.4,0.9,0.7,1.4c0.3-0.3,0.7-0.5,1-0.8C97.9,49.3,98,49,98,49c1.2,0.3,1.4-1.6,2.7-1.3c0.4-1.1,1.7-1.1,2.4-1.8
		c0.2-0.2,0.4-0.4,0.6-0.6c0.2-0.2,0.5-0.4,0.8-0.5c0.8-0.3,1-1.6,2.1-1.4c0.1,0,0.2-0.2,0.3-0.3C107.6,42.5,108.3,41.9,109,41.4z"
		/>
	<path class="st1" d="M34.8,139.2c0.8,0,1.6,0,2.4,0c0,2.4,0,4.7,0,7c0,1.1,0.6,1.6,1.8,1.4c0-2.8,0-5.5,0-8.4c0.8,0,1.6,0,2.3,0
		c0-0.9,0-1.6,0-2.4c-0.8,0-1.6,0-2.4,0c-0.2,0-0.4,0.2-0.6,0.2c-0.8,0.1-1.6,0.2-2.4,0.2c-0.4,0-0.7-0.4-1.2-0.7
		C34.8,137.7,34.8,138.4,34.8,139.2z"/>
	<path class="st1" d="M111.7,53.2c-0.4,0-0.9-0.1-1,0.1c-0.5,1.1-1.7,0.2-2.4,1.1c-0.4,0.4-1.3,1.1-2.3,0.7c-0.1,0-0.2,0.1-0.2,0.1
		c-0.5,0.3-1,1-1.6,1c-1.1,0.1-2,0.6-2.9,1.2c-0.8,0.5-1.8,0.5-2.8,0.7c0,0.8,0,1.6,0,2.5c0.9-0.3,1.6-0.6,2.3-0.9
		c0.6-0.3,1-0.8,1.6-1c0.6-0.2,1.2-0.1,1.8-0.6c0.6-0.5,1.5-0.5,2.3-0.7c0.1,0,0.3-0.1,0.4-0.2c0.6-0.3,1.3-0.7,1.9-1
		c0.7-0.3,1.5-0.5,2.2-0.7c0,0,0-0.1,0.1-0.2C111.9,54.8,111.8,54.1,111.7,53.2z"/>
	<path class="st1" d="M88.4,20.9c-0.1,0.1-0.1,0.2-0.2,0.3c0.3,1.3-1.4,1.7-1.5,2.9c0,0.5-0.9,1-0.9,1.6c0,1.2-1.5,1.4-1.4,2.7
		c0,0.5-0.8,1-1,1.5c-0.3,0.8-0.5,1.7-1.2,2.3c-0.3,0.3,0.5,2,0.9,2.2c0.5-0.9,1-1.8,1.5-2.7c0.1-0.2,0.4-0.3,0.6-0.5
		c0.4-0.8,0.8-1.7,1.3-2.5c0.1-0.2,0.4-0.3,0.6-0.5c0.4-0.8,0.8-1.7,1.3-2.5c0.1-0.2,0.5-0.3,0.6-0.5c0.4-1.1,1-2.2,2-3.2
		C89.9,21.4,89.1,21.1,88.4,20.9z"/>
	<path class="st1" d="M16,61.4c-0.6-0.4-0.9-0.7-1.3-0.9c-0.8-0.5-1.3-1.7-2.5-1.3c-0.1,0-0.3-0.1-0.3-0.1c-0.1-0.7-0.6-0.4-1-0.5
		c-0.7-0.2-1.5-0.3-2-0.8c-0.8-0.7-1.8-0.5-2.6-1c-0.6-0.4-1.8-0.3-2.2-0.8c-0.6-0.8-1.3-0.3-1.9-0.5c-0.3,2,0,2.3,1.7,2.4
		c0.2,0,0.4,0.1,0.6,0.2c0.6,0.3,1.3,0.7,1.9,1c0.9,0.3,1.8,0.4,2.8,0.7c0,0,0.1,0,0.1,0.1c0.2,0.8,0.8,0.5,1.3,0.5
		c0.2,0,0.5,0,0.5,0.1c0.3,0.8,1,0.4,1.5,0.6c0.8,0.2,1.5,0.4,2.2,0.7c0.4,0.1,0.7,0.4,1.3,0.7C16,61.8,16,61.5,16,61.4z"/>
	<path class="st1" d="M23.9,25.6c0,0.1-0.1,0.5,0,0.6c0.6,0.6,0.9,1.5,1.5,2c0.7,0.7,0.9,1.6,1.5,2.2c0.6,0.7,0.8,1.7,1.3,2.4
		c0.2,0.4,0.4,0.8,0.6,1.1c0.5,0.7,1.1,1.3,1.4,2.2c0.2,0.5,1,0.7,1,1.5c0,0.3,0.6,0.7,1.1,1.2c0-1.1,0-1.9,0-2.7
		c0-0.2,0-0.4-0.1-0.5c-0.3-0.5-1.1-1-1-1.5c0.1-1.2-1.7-1.4-1.4-2.7c-1.1-0.3-1-1.6-1.7-2.3c-0.4-0.3-0.4-1.1-0.8-1.4
		c-1.1-0.8-1.4-2-1.8-3C25.1,25,24.6,25.2,23.9,25.6z"/>
	<path class="st1" d="M60.2,125.3c1.1,0,2,0,3,0c0-0.7,0.1-1.3,0-1.9c-0.1-0.9,0.5-2-0.4-2.5c0.2-0.6,0.4-1,0.6-1.6
		c-0.6,0-0.9-0.1-1.2,0c-0.2,0.1-0.3,0.4-0.7,0.8c-0.1-0.7-0.1-1.1-0.2-1.5c-1.2,0.4-1.6,2.2-0.8,3c0.2,0.2,0,0.8,0,1.2
		c0,0.2-0.3,0.3-0.3,0.5C60.2,124,60.2,124.6,60.2,125.3z"/>
	<path class="st1" d="M18.4,66.6c0,0.4,0,0.8,0,1.2c0,0.2,0,0.4,0.1,0.8c0.7-0.7,1.2-1.3,2-2C19.6,66.6,19.1,66.6,18.4,66.6z"/>
	<path class="st1" d="M61.4,92c-0.1,0-0.1-0.1-0.2-0.1c-0.1,0.2-0.3,0.3-0.3,0.5c-0.1,0.2,0,20.5-0.1,20.7c-0.3,0.5-0.1,1,0.6,1.3
		C61.4,113.6,61.4,92.8,61.4,92z"/>
	<path class="st1" d="M6.9,79.8c0-0.1,0.1-0.1,0.1-0.2c-0.2-0.1-0.3-0.3-0.5-0.3c-0.2-0.1-0.5,0-0.7-0.1c-0.5-0.4-1-0.2-1.3,0.6
		C5.3,79.8,6.1,79.8,6.9,79.8z"/>
	<path class="st1" d="M20.3,59.3c0,0.4,0,0.8,0,1.4c0.5-0.6,0.8-0.9,1.3-1.4C21,59.3,20.7,59.3,20.3,59.3z"/>
	<path class="st1" d="M68.7,30.7c-0.5,0-0.8,0.1-1.4,0.1c0.6,0.5,0.9,0.9,1.4,1.4C68.7,31.6,68.7,31.2,68.7,30.7z"/>
	<path class="st0" d="M36.7,80.3c0.7,0.6,0.7,2.2,0.1,2.7c0.2,0.6,0.4,1.1,0.4,1.6c0.1,0.9,0,1.9,0,2.8c0,0.1,0,0.1-0.1,0.2
		c-0.4,0.1-0.8,0.2-1.2,0.3c0,0.1,0.1,0.2,0.1,0.3c0.4,0,0.7,0.1,1.2,0.1c0,2.5,0,24.9,0,27.4c0,0.3-0.4,0.5-0.4,0.6
		c0.2,0.7,0.4,1.2,0.4,1.7c0,2,0,4,0,6c0,0.7-0.1,1.3-0.6,1.7c-0.1,0.1-0.4,0.1-0.4,0.1c-0.3-1-1.3-0.3-2-0.7c0-0.3,0-0.6,0-1
		c0-4.9,0-29.8,0-34.6c0-0.5-0.3-1,0.5-1.3c0.2-0.1,0.1-0.9,0.1-1.4c0.1-0.6-0.4-1.3,0.5-1.6c0.1,0,0.1-0.6,0.1-1
		c-0.4,0-0.8-0.1-1.2-0.1c0.2-0.9-0.5-2,0.4-2.5c-0.2-0.6-0.4-1.1-0.4-1.6c0-1.5,0-3,0-4.4c0-0.5,0.2-0.9,0.4-1.6
		c-0.3-0.3-1.1-0.8,0.1-1.4c0.1,0,0.1-0.2,0.1-0.3c-1.1-0.8,0.6-1.5,0.1-2.3c-0.1-0.1,0.4-0.6,0.6-0.9c0.8-0.8,0.7-1.5,0.2-2
		c0.1-0.7,0.3-1.3,0.2-1.7c-0.2-0.4-0.7-0.7-1.2-1.1c0.6-0.2,1-0.3,1.4-0.4c0-0.1,0-0.2-0.1-0.4c-0.5,0-1.1,0-1.7-0.1
		c0-0.3-0.1-0.6-0.1-0.9c0-2.2,0-4.4,0-6.7c0-0.6-0.4-1.3,0.5-1.7c0.1,0,0.1-0.9,0-0.9c-0.8-0.3-0.5-0.9-0.5-1.4c0-7.5,0-15,0-22.5
		c0-0.4-0.3-1,0.5-1.1c0.1,0,0.1-0.4,0.1-0.6c0-0.8,0-1.6,0-2.4c0.1-0.6-0.4-1.5,0.5-1.9c0.1-0.1,0.1-0.6,0-0.9
		c-0.2-0.8,0.1-1.5,0.7-1.8c0.7-0.4,0.5-0.8,0.5-1.3c0-1,0.5-1.8,1.1-2.6c0.3-0.4,0.6-1.2,0.6-1.4c0-1.1,1-1.4,1.5-2.1
		c0.4-0.7,1.3-1,1.9-1.5c0.1,0.1,0.2,0.1,0.2,0.2c0-0.4,0.1-0.7,0.1-1.1c0.1,0.1,0.1,0.1,0.2,0.2c0.7-0.6,1.5-1.1,2.2-1.7
		c0.2-0.2,0.5-0.2,0.6-0.4c0.6-0.9,2-0.2,2.5-1.1c0,0,0.1-0.1,0.2-0.1c1.5,0,2.8-1,4.3-0.7c0.3,0.1,0.6-0.3,0.9-0.4
		c0.2-0.1,0.4-0.2,0.5-0.2c2.4,0,4.9-0.3,7.3,0.1c1.3,0.2,2.7,0.4,4,0.5c0.4,1.2,2,0,2.3,1.2c0,0,0.3,0,0.4,0c1.3,0,2.3,0.6,3,1.6
		c0.1,0.1,0.1,0.2,0.2,0.2c1.5,0,1.9,1.4,2.8,2.2c0.8,0.6,1.4,1.4,2.1,2.1c0.1,0.1,0.2,0.3,0.3,0.4c0.3,1,0.7,1.9,1.5,2.6
		c0.1,0.1,0.2,0.3,0.3,0.4c0.2,0.8,0.2,1.8,0.7,2.3c0.8,0.7,0.2,1.6,0.6,2.2c0.8,1.2,0.1,2.7,0.7,3.8c0.6,1.1,0.4,2.1,0.5,3.1
		c0,0.4-0.2,0.8-0.3,1c0.1,0.8,0.3,1.4,0.3,2.1c0,16.9,0,33.7,0,50.6c0,0.5-0.2,1-0.4,1.6c0.7,0.6,0.7,5.2-0.2,5.8
		c0.8,0.9,0.8,22.5,0.2,22.8c0.1,0.8,0.3,1.5,0.3,2.1c0,3,0,6.1,0,9.1c0,0.8-0.5,1-0.9,1.4c-0.2,0.2-0.9,0.2-1.1-0.4
		c0-0.1-0.6-0.1-1.1-0.2c0-0.3,0-0.7,0-1c0-4.9,0-29.8,0-34.6c0-0.5,0.2-1.1,0.3-1.5c-0.1-0.4-0.4-0.9-0.4-1.4c0-16.5,0-32.9,0-49.4
		c0-0.5-0.2-1,0.5-1.2c-0.1-0.4-0.1-0.7-0.2-1.1c0-0.1-0.2-0.2-0.5-0.5c0.8,0,1.3,0,2,0c0-0.4,0-0.8,0.1-1.2c-0.6,0-1.2-0.1-2-0.1
		c0.6-0.6,1-1.1,1.6-1.7c-0.6-0.1-0.9-0.1-1.4-0.1c0.2-0.6-0.6-1.4,0.5-1.9c0.1,0,0.1-0.3,0.1-0.3c-1.2-0.7-0.3-1.9-0.6-2.8
		c-0.1-0.4,0.3-1-0.5-1.1c0,0-0.1-0.2-0.1-0.3c0.3-0.8,0.3-0.8-0.4-1.4c0,0-0.1-0.1-0.1-0.1c-0.2-0.9-0.6-1.8-0.6-2.7
		c-0.1-0.7-0.1-1.3-0.7-1.8c-0.7-0.6-0.9-1.5-1.2-2.3c-0.3-0.6-0.9-1.1-1.4-1.6c-0.9-0.9-1.9-1.9-2.8-2.8C69.2,12.1,69.1,12,69,12
		c-1.1,0-2-0.4-2.8-1.2c-0.1-0.1-0.3,0-0.5-0.1c-0.5-0.1-1.1,0.2-1.3-0.5c0-0.1-0.4-0.1-0.7-0.1c-1.2,0-2.5,0-3.7,0
		c-0.6,0-1.2,0.3-1.7-0.5c-0.3-0.4-1,0.1-1.4,0.5c-0.3-0.6-1-0.9-1.3-0.5c-0.5,0.8-1.1,0.5-1.6,0.5c-1,0.1-2.1,0.1-3.1,0
		c-1.1-0.1-2,0.4-2.7,1.1c-0.1,0.1-0.3,0.1-0.5,0.1c-0.6,0-1.3,0-1.7,0.6c-0.1,0.1-2.1,0.6-2.6,0.7c-0.2,1.4-1.2,2.4-2,3.5
		c-0.4,0.5-0.7,1.1-1.1,1.7c-0.2,0.3-0.4,0.6-0.6,0.9c-0.4,0.5-0.5,1.1-0.7,1.7c-0.3,0.9-0.2,2-0.6,2.6c-1,1.6-0.2,3.1-0.5,4.6
		c-0.1,0.5,0.3,1-0.5,1.3c-0.4,0.1,0,1.9,0.2,2.3c0.2,0.3,0.3,0.9,0.1,1.1c-0.6,0.8-0.5,1.7,0,2.6c0.3,0.6,0.4,1.8,0,2.2
		c-0.4,0.4-0.4,0.8-0.4,1.2c0,9.2,0,18.4,0,27.6c0,0.5-0.2,0.9-0.3,1.4c0.1,0.5,0.3,1,0.3,1.6c0,3.3,0,6.6,0,9.9
		C37.2,79.3,36.9,79.7,36.7,80.3z"/>
	<path class="st0" d="M79,43.4c0-0.4,0-0.7,0-1.4c-0.5,0.5-0.8,0.9-1.4,1.4C78.2,43.4,78.5,43.4,79,43.4z"/>
	<path class="st0" d="M36.5,87.1c0-0.4,0-0.8,0-1.4c-0.6,0.5-0.9,0.9-1.3,1.2c0.1,0.1,0.1,0.2,0.2,0.3
		C35.8,87.1,36.1,87.1,36.5,87.1z"/>
	<path class="st0" d="M109.3,130.8c-0.6-0.1-0.6,0.3-0.6,0.7c0,1.4-1.7,2.3-2.9,1.7c-0.2-0.1-0.3-0.4-0.2-0.4
		c-0.7,0.2-1.2,0.4-1.8,0.4c-2.9,0-5.9,0-8.8,0c-0.3,0-0.6-0.3-0.9-0.4c-0.4-0.1-1-0.1-1.1-0.1c-0.2,0.7-0.7,0.5-1.1,0.5
		c-1.2,0-2.4,0-3.5,0c-0.4,0-0.8-0.3-1-0.3c-0.7,0.1-1.4,0.3-2,0.3c-17.7,0-35.4,0-53.1,0c-0.5,0-1-0.2-1.7-0.4
		c-0.3,0.3-0.8,1-1.4-0.1c-0.1-0.1-0.8-0.1-1,0c-0.9,0.6-1.1,0.7-2,0c-0.1-0.1-0.2-0.1-0.3-0.1c-0.7,1.3-1.3-0.7-2,0
		c-0.1-0.5-0.2-0.9-0.3-1.3c-0.1,0-0.2,0-0.3,0.1c0,0.4-0.1,0.8-0.2,1.3c-1.1-0.9-2.2-1.1-3.3,0c-0.2-0.2-0.3-0.4-0.3-0.4
		c-0.7,0.2-1.2,0.3-1.7,0.4c-0.5,0.1-0.9,0-1.4,0c-0.5,0.1-0.9,0.2-1.6,0.4c-0.3-0.2-0.9-0.7-1.5-1c-0.8-0.4-1,0.5-1.5,0.8
		c-0.3,0.1-0.5,0.4-0.7,0.4c-0.9-0.1-1.9,0.5-2.6-0.5c-0.1-0.1-0.6,0-0.9,0.1c-0.3,0.1-0.7,0.5-0.9,0.4c-0.4-0.2-0.7-0.6-0.9-1
		c-0.1-0.2-0.1-0.5-0.1-0.7c-0.6,0.3-1.1,0.5-1.7,0.8c0,0.2-0.1,0.5-0.1,0.9c-2.4,0.4-3.3-0.1-2.9-2.9c0.1,0,0.3-0.1,0.5-0.1
		c4.6,0,9.2,0,13.8,0c1,0,1.3,0.9,1.9,1.4c0.4,0.3,0.7,0.5,1,0.4c0.4-0.2,0.6-0.7,0.9-1c0.1-0.1,0-0.4,0-0.7c0.6,0,1.1,0,1.8,0
		c0,0.3,0,0.7,0.1,1.1c0.4,0,0.8,0,1.3,0c-0.3-0.4-0.6-0.7-1-1.2c0.6,0,1,0,1.3,0c5.5,0,11,0,16.6,0c0.5,0,0.9-0.2,1.4-0.3
		c0.5,0.1,1,0.3,1.6,0.3c0.7,0.1,1.5,0.1,2.2,0c0.3,0,0.5-0.3,0.7-0.4c0.4-0.1,1-0.2,1.1-0.1c0.2,0.8,0.9,0.4,1.3,0.5
		c0.4,0,0.8,0.1,1.2,0c0.5-0.1,1.1-0.2,1.5-0.4c0.4,0.1,0.9,0.3,1.4,0.3c4.4,0,8.8,0,13.1,0c0.3,0,0.7-0.3,1-0.4
		c0.4-0.1,0.8-0.1,1.1,0c0.3,0.1,0.7,0.4,1,0.4c2.6,0,5.2,0,7.8,0c0.4,0,0.9-0.2,1.2-0.4c0.6,0.1,1.1,0.4,1.7,0.4c4,0,8,0,12,0
		c0.4,0,0.7,0,1,0c0.2,0.5,0.4,0.8,0.6,1.2c0.1-0.3,0.3-0.7,0.4-1.2c0.2,0,0.4,0,0.7,0c5.1,0,10.1,0,15.2,0
		C108.8,130.2,109.5,129.9,109.3,130.8L109.3,130.8z"/>
	<path class="st0" d="M34.1,170.9c0.6-0.3,1.1-0.6,1.7-0.7c0.5-0.1,1,0,1.5,0c0.5,0,1,0.3,1.3-0.5c0.1-0.4,2.6-0.1,2.9,0.3
		c0.4,0.4,3.8,0.1,4.3-0.1c0.5-0.2,1.3-0.3,1.7-0.1c0.7,0.4,2.5,0.5,3.1,0c0.2-0.1,0.5-0.2,0.7-0.2c4.9,0,9.9,0,14.8,0
		c0.3,0,0.5,0.3,0.8,0.4c0.4,0.1,1.1,0.1,1.1,0c0.2-0.7,0.7-0.5,1.1-0.5c5.6,0,11.1,0,16.7,0c0.4,0,1-0.3,1.2,0.5
		c0,0.1,0.7,0.1,1,0.1c0.7,0,1.5,0.2,2,0c2.2-1.2,4.5-0.2,6.7-0.5c0.4-0.1,0.8-0.1,1.1,0.4c0.3,0.5,1,0.2,1.3-0.5
		c0.9,0.8,2,0.9,2.9,0.1c0.3-0.3,2.7-0.1,3,0.3c0.4,0.4,0.9,0.3,1.5-0.4c0.5,0.5,1,1.2,1.6,0.1c0.2-0.4,2.6,0.1,2.9,0.3
		c0.3,0.2,0.7,0.2,1.1,0.1c0.2,0,0.4-0.3,0.6-0.5c0.2,0.3,0.7,0.6,0.7,0.9c0,0.8,0.5,1.8-0.5,2.4c-0.2,0.1-0.4,0.4-0.7,0.4
		c-3.8,0-7.6,0-11.4,0c-0.3,0-0.7-0.3-0.8-0.4c-0.6,0.2-1.2,0.4-1.7,0.4c-5.5,0-11,0-16.6,0c-0.4,0-0.9-0.2-1.1-0.3
		c-0.7,0.1-1.3,0.3-2,0.3c-2.5,0-5,0-7.5,0c-0.5,0-1.2,0.3-1.5-0.5c0-0.1-0.7,0-1,0.1c-0.3,0.1-0.7,0.4-1,0.4c-3,0-5.9,0-8.9,0
		c-0.5,0-0.9-0.2-1.4-0.4c-0.4,0.1-1,0.3-1.5,0.4c-1.1,0.1-2.3,0-3.4,0c-0.3,0-0.5-0.3-0.8-0.4c-0.2-0.1-0.4,0-0.6,0.1
		c-0.2,0.1-0.4,0.4-0.6,0.3c-0.6-0.2-1.3-0.4-1.8-0.8c-0.5-0.5-0.8-0.5-1.3,0c-0.2,0.2-0.7,0.2-1.1,0.3c0-0.3,0-0.5-0.1-0.7
		c0-0.2-0.1-0.4-0.1-0.4c-0.8,0.1-1.7,0-2.1,0.4c-0.8,0.9-1.8,0.4-2.6,0.5c-0.2,0-0.4,0-0.5,0c-0.8-1.5-1,0.3-1.4,0.4
		c-0.3,0.1-0.4,0.4-0.6-0.1c-0.1-0.1-0.2-0.2-0.3-0.3c-0.8,1.1-1.5-0.6-2.3,0c-0.1,0-0.3-0.1-0.4-0.2c-0.8-0.9-0.8-1-1.8-1.1
		C34.2,171.2,34.1,171.1,34.1,170.9z"/>
	<path class="st0" d="M46.4,27.1c1.3,0.2,1.6-1,2.3-1.5c0.5-0.4,1-0.8,1.7-1c0.8-0.3,1.9-0.2,2.6-1c0.1-0.1,0.4-0.1,0.7-0.1
		c0.9-0.2,1.9,0.5,2.6-0.6c0.1-0.1,0.7-0.1,0.7,0c0.4,1,1.2,0.5,1.9,0.6c0.5,0.1,1.1,0,1.6,0c0.6,0.1,1.4-0.4,1.7,0.5
		c1.1-0.2,1.8,0.9,2.6,1.1c1.2,0.4,1.6,1.6,2.6,2.1c0.2,0.1,0.1,0.6,0.1,1c0.4,0.1,0.8,0.1,1.1,0.2c-0.3,0.5-0.5,1-0.8,1.5
		c0,0.1,0,0.2,0,0.4c-0.9-0.3-1.9-0.5-2.9-0.8c0-0.3-0.1-0.7-0.1-1c-0.1,0.1-0.1,0.1-0.2,0.2c-0.5-0.5-1.1-0.9-1.6-1.4
		c-0.1-0.1-0.2-0.2-0.3-0.2c-2-0.1-4-1-6.1-0.6c-0.6,0.1-1.1,0.1-1.7,0c-0.4,0-0.8-0.2-1.2-0.4c-0.7,0.3-1.6,0.6-2.4,1
		c-0.6,0.3-1,0.9-1.5,1.4c-0.5,0.5-1,1-1.4,1.6c-0.4,0.5-0.7,1.1-1.1,1.6c-0.6,0.9-0.3,2.1-1.2,2.8c-0.1,0.1,0,0.4,0,0.6
		c0,1.2,0,2.4,0,3.5c0,0.5-0.2,1-0.3,1.4c0.1,0.5,0.3,1,0.3,1.5c0,13,0,25.9,0,38.9c0,0.5,0.3,1.1-0.5,1.3c0,0-0.1,0.2-0.1,0.3
		c1.3,1.1-0.5,1.1-0.6,1.7c0,0.1,0,0.1,0,0.3c0.4,0,0.7,0.1,1.4,0.2c-0.3,0.3-0.5,0.4-0.6,0.5c-0.2,0.2-0.3,0.4-0.3,0.4
		c-0.8-0.2-1.5-0.4-2.4-0.6c0.1-0.4,0.3-0.9,0.4-1.2c-0.1-0.5-0.4-1-0.4-1.4c0-9.4,0-18.8,0-28.2c0-0.5,0.2-0.9,0.4-1.4
		c-0.1-0.4-0.4-0.9-0.4-1.5c0-5.3,0-10.6,0-15.9c0-0.4-0.3-1,0.5-1.2c0.1,0,0.1-0.3,0.1-0.5c-0.4-1.1,0.2-2.1,0.7-2.8
		c0.5-0.7,0.4-1.9,1.6-2.2C46.3,28.2,46.3,27.6,46.4,27.1z"/>
	<path class="st0" d="M71.6,119.1c-0.3,0.4-1,0.7,0,1.5c0.3,0.2,0.2,1.3-0.1,1.7c-0.4,0.6-0.5,0.8,0,1.3c0.2,0.2,0.3,0.8,0.2,0.9
		c-0.3,0.4-0.8,0.6-1.2,0.8c-0.5,0.2-1,0.2-1.5,0.4c0,0.1,0,0.2,0,0.3c-0.3-0.2-0.7-0.4-0.8-0.7c-0.1-0.3-0.2-0.9,0-1
		c1.1-0.6,0.3-1.5,0.5-2.2c0-0.1-0.4-0.3-0.6-0.5c0.5-0.7,0.9-1.3,1.2-1.9c0.1-0.2-0.5-0.6-0.8-0.9c-0.5-0.5-0.6-2-0.1-2.5
		c0.1-0.1,0.2-0.5,0.1-0.6c-0.7-0.7-0.6-1.6,0.2-2.1c-0.1-0.1-0.2-0.3-0.3-0.3c-0.6-0.4-0.5-20.7-0.1-21.2c0.2-0.3,0.3-1,0.3-1
		c-0.9-0.3-0.5-1.1-0.5-1.6c0-2.1,0-4.2,0-6.3c0.5-0.1,0.9-0.2,1.3-0.3c0-0.1,0-0.2-0.1-0.3c-0.4,0-0.7-0.1-1.2-0.1
		c0-0.6,0-1.2,0-1.8c0-0.2,0.3-0.4,0.3-0.6c0.1-0.4,0.2-1.1,0.1-1.1c-0.8-0.2-0.5-0.8-0.5-1.2c0-11.5,0-23,0-34.5
		c0-0.9,0.3-1.5,1.1-2c0.1-0.1,0.1-0.3,0.2-0.5c-0.4,0-0.8-0.1-1.1-0.1c-0.4-1.7,0-2.3,1.6-2.4c0-0.6,0.1-1.2,0.1-1.7
		c0.8,0.2,1,0.7,0.6,1.3c-0.1,0.1,0,0.4,0,0.4c0.8,0.1,0.5,0.8,0.5,1.2c0,17,0,34.1,0,51.1c0,0.4-0.3,1.1,0.5,1.2
		c-0.3,0.6-0.4,21.1,0,21.7c-0.7,0.1-0.5,0.7-0.5,1.1c0,1.2,0,2.4,0,3.5C71.2,118.1,71.4,118.5,71.6,119.1z"/>
	<path class="st0" d="M96,92.6c-0.5,0-0.8,0-1.2,0.1c0,0.6,0,21.2,0,21.7c0.5-0.2,1.1-0.5,1.7-0.8c0,0.6,0,1,0,1.1
		c-0.7,0.4-1.3,0.8-1.9,1.1c0,0.1,0.1,0.2,0.1,0.3c0.4,0.1,0.7,0.1,0.8,0.1c0.4,0.5,0.6,0.9,0.9,1.3c0.3,0.5-0.1,1.7-0.8,2.3
		c-0.1,0.1-0.3,0.4-0.3,0.4c1.1,1,0.6,2-0.1,3.1c0.4,0,0.7,0.1,1.2,0.1c0,0.5,0,1.1,0,1.7c-1,0-1.9,0-3.1,0c1-1.2,1-2.3,0.1-3.5
		c0.4-0.1,0.8-0.1,1.5-0.2c-0.3-0.4-0.5-0.8-0.7-1.1c-0.6-0.8,0.3-1.2,0.6-1.7c0.2-0.4,0.5-0.7,0.7-1c-0.1-0.1-0.2-0.2-0.3-0.4
		c-0.7,0.2-1.5,0.5-2.4,0.8c0.3-0.6,0.6-1.1,0.6-1.5c0-0.4,0.3-1-0.4-1.1c-0.1,0-0.2-0.6-0.1-0.8c0.3-0.6,0.8-21.1,1.1-21.7
		c0-0.1,0-0.2,0-0.3c-0.4,0-0.7-0.1-1.2-0.1c0.2-0.9-0.5-1.9,0.7-2.7c-1.1-0.5-0.7-1.4-0.7-2.1c0-0.7-0.5-1.5,0.5-2
		c0.1,0,0.1-0.7-0.1-0.9c-0.7-0.9-0.7-2.3,0-3.2c0.2-0.2,0.1-0.9-0.1-1.1c-0.5-0.5-0.4-0.8,0-1.3c0.2-0.3,0.4-0.8,0.2-1.1
		c-0.7-1.1-0.7-1.5,0-2.7c0.3-0.4,0-1.9-0.3-2.3C93,73,93,72.7,93,72.4c0-2.5,0-5.1,0-7.6c0-0.3,0.4-0.5,0.4-0.8
		c0.1-0.4,0.1-0.8,0-1.1c-0.1-0.3-0.4-0.7-0.4-1c0-1.8,0-3.6,0-5.5c0-0.3-0.3-0.6-0.4-0.9c-0.1-0.1-0.2-0.3-0.1-0.4
		c0.3-1.1-0.4-1.9-0.6-2.9c-0.1-0.2-0.4-0.3-0.6-0.5c-0.4-0.6-0.7-1.6-1.3-1.8c-1.1-0.4-1.6-1.7-2.9-1.6c-0.2,0-0.5-0.3-0.7-0.4
		c-0.3-0.1-0.7-0.2-1-0.2c-0.8-0.1-1.6,0.3-2.3-0.6c-0.4-0.5-0.4-2,0.1-2.5c0.5-0.6,0.9-1.1,1.6-0.1c0.2,0.3,1.2,0.1,1.8,0.1
		c0.9,0,1.6,0.6,2.3,1.1c0.4,0.3,1.2-0.1,1.4,0.7c1.5,0.1,1.9,1.5,2.8,2.2c0.7,0.6,0.9,1.5,1.2,2.3c0.2,0.6,0.7,1.1,1,1.6
		c0.1,0.1,0.1,0.1,0.2,0.2c0.2,1.3,0.6,2.5,0.6,3.8c0.1,6.6,0,13.2,0,19.8c0,0.4,0.3,1-0.5,1.1c-0.1,0-0.1,0.9,0,1
		c0.8,0.3,0.5,0.9,0.5,1.4c0,1.3,0,2.6,0,3.8c0,0.4-0.2,0.9,0.5,1c-0.2,0.6-0.4,1.1,0,1.7c-0.8,0.1-0.5,0.7-0.5,1.2
		C96,89.2,96,90.9,96,92.6z"/>
	<path class="st0" d="M94,77c0.2,0.4,0.3,0.7,0.4,1c0.1-0.3,0.3-0.6,0.3-0.8c0-0.3-0.1-0.6-0.2-0.9C94.4,76.5,94.2,76.7,94,77z"/>
	<path class="st0" d="M75.7,158.7c-0.1-0.1-0.3-0.2-0.3-0.3c-0.3-1.1,0.6-1.8,0.8-2.7c0.1-0.5,0.5-1.2,0.3-1.6
		c-0.4-0.9-1-1.8-1.8-2.4c-0.8-0.8-1.8-1.4-3.1-1.4c-0.8,0-1.5,0.8-2.3,0c-0.1-0.1-0.4,0.2-0.6,0.3c-0.6,0.1-1.1,0.2-1.7,0.2
		c-0.2,0-0.4-0.3-0.5-0.5c-0.3,0.4-0.7,0.8-0.7,1.2c0,5,0,10,0,15.2c2.5,0,5,0,7.4,0c0.2,0,0.4-0.2,0.5-0.3c0.3-0.3,0.6-0.7,1-0.9
		c1.3-0.4,2.1-1.3,2.1-2.6c0-0.7-0.1-1.5,0-2.2C76.8,159.7,76.3,159.2,75.7,158.7z M68.7,153.2c1.1,0,2.2-0.1,3.2,0.1
		c0.4,0.1,0.9,0.6,1,1.1c0.2,0.5,0,1.2,0,1.9c-1,0.2-1.8,0.6-2.7,0.6c-1,0.1-1.6-0.5-1.6-1.5C68.7,154.7,68.7,154,68.7,153.2z
		 M73.6,162c-0.1,0.4-1.6,1.5-2.1,1.5c-0.9,0-1.7,0-2.7,0c0-1.1-0.1-2.1,0-3c0-0.4,0.5-0.8,0.7-1.2c0.2,0.2,0.3,0.5,0.5,0.5
		c0.6,0.1,1.3,0.1,1.9,0.1C73.1,159.9,73.9,160.9,73.6,162z"/>
	<path class="st0" d="M110.5,114.4c-0.3,0-0.7,0.1-1.1,0.1c0,0.3,0,0.7,0,1.1c0.3,0,0.7,0.1,1.1,0.1c0,0.4,0,0.7,0,1.1
		c-0.6,0-1.1,0-1.7,0c0,0.6,0,1.2,0,1.8c0.4,0,0.7,0,1.3,0c-0.3-0.4-0.5-0.7-0.9-1.1c0.5,0,0.9,0,1.3,0c0,2.6,0,5.1,0,7.8
		c-1,0-1.9,0-3,0c0-0.4,0-0.8,0-1.2c0-2.6,0-5.2,0-7.8c0-0.6,0-1.1,0.6-1.6c1-0.9,1-21.3-0.1-22.1c-0.5-0.3-0.5-0.6-0.5-1
		c0-5.6,0-11.1,0-16.7c0-1-0.5-1.7-1.1-2.5c-0.2-0.3-0.2-0.8-0.5-1.2c-0.5-0.8-1.9-0.7-2.2-1.8c0,0-0.1-0.1-0.2-0.1
		c-1.4,0-2.6-1-4.1-0.6c-0.1,0-0.3,0-0.4,0c0-1,0-1.9,0-3c0.9,0,1.9-0.3,2.5,0.1c0.9,0.6,1.8,0.3,2.6,0.6c0.6,0.2,1,0.9,1.5,1
		c1.6,0.3,2.2,1.8,3.3,2.6c0.1,0.1,0.2,0.2,0.2,0.3c0.2,0.8,0.2,1.7,0.7,2.3c1.1,1.8,0.4,3.7,0.5,5.5c0.1,2,0,4,0,6
		c0,1.9,0,3.9-0.1,5.9c0,0-0.7,0.1-1.4,0.1C110.8,91.3,110.7,112.8,110.5,114.4z"/>
	<path class="st0" d="M60,154c-0.3-0.2-0.6-0.5-1-0.6c-0.3-0.1-1-0.2-1-0.1c-0.3,0.9-1.1,0.5-1.6,0.5c-0.9,0.1-1.8,0-2.8,0
		c0,0.8,0,1.5,0,2.4c2.1,0,4.3,0,6.5,0c0,1.1,0,2,0,3c-2.2,0-4.3,0-6.5,0c0,1.4,0,2.8,0,4.3c1,0,2.1,0,3.2,0c0.1,0,0.2-0.2,0.4-0.2
		c0.3-0.1,0.9-0.4,0.9-0.3c0.7,1,1.7,0.4,2.5,0.6c0.1,0,0.1,0.1,0.2,0.1c-0.4,0.6-1.4,1.3,0,1.9c-0.6,0.8-1.3,1-2.2,1
		c-2.7-0.1-5.4,0-8.2,0c0.3-1.2-0.6-2.4,0.5-3.2c-0.2-0.6-0.4-1.1-0.4-1.6c0-3.5,0-7,0-10.5c0-0.4,0-0.7,0-1.1
		c0.1,0,0.2-0.1,0.2-0.1c0.1,0.1,0.2,0.3,0.4,0.4c0.2,0.1,0.4,0.2,0.5,0.2c0.9-0.7,2.9-0.7,3.8,0c0.2,0.2,0.9,0.2,1,0
		c0.9-1.1,2-0.3,2.9-0.4c0.2,0,0.7,0.7,0.8,1.1c0.1,0.8,0,1.6,0,2.4C60.1,153.8,60.1,153.9,60,154z"/>
	<path class="st0" d="M20.8,149.9c0,4,0,7.7,0,11.4c0,1.4,2.2,2.8,3.4,2.1c0.4-0.2,0.8-0.5,1.4-1c0-3.8,0-8,0-12.3c1.1,0,2,0,3.1,0
		c0,0.7,0,1.4,0,2.1c0,3.3,0,6.6,0,9.9c0,1.4-0.3,1.8-1.7,1.9c-0.1,0.9-0.7,1.3-1.5,1.9c-1.2,0.7-2.3,0.4-3.4,0.5
		c-1.3,0.1-2.2-0.6-3-1.5c-0.7-0.8-1-1.9-1.3-2.8c-0.4-0.9-0.5-1.8-0.5-2.7c0-0.3,0.3-0.5,0.4-0.8c0.1-0.4,0.2-0.8,0.1-1.1
		c-0.6-0.9-0.7-0.9-0.1-1.4c-0.2-0.7-0.3-1.1-0.4-1.6c0-1.2,0-2.4,0-3.6C18.4,150.5,19.5,150.3,20.8,149.9z"/>
	<path class="st0" d="M45.8,150.2c-0.8,1.2-1.2,2.4-2.3,3c-0.1,0-0.2,0.1-0.2,0.2c0.2,1.1-1,1.3-1.3,2.1c-0.2,0.4-0.5,0.7-0.8,1.1
		c0.1,0.1,0.1,0.1,0.2,0.2c-0.4,0-0.7,0.1-1,0.1c-0.5,0.9,0.3,1.3,0.8,1.8c0.1,0.1,0.2,0.3,0.3,0.4c0.4,0.8,0.6,1.9,1.3,2.4
		c0.8,0.7,1.4,1.4,1.1,2.6c0.4,0,0.8,0,0.9,0.1c0.6,0.8,1.1,1.5,1.7,2.4c-1.4,0-2.7,0.1-3.9,0c-0.3,0-1-0.7-0.9-0.9
		c0.2-1.4-0.9-1.8-1.5-2.6c-0.1-0.2-0.3-0.3-0.3-0.5c-0.1-1.1-1.2-1.2-1.5-2c-0.1,0-0.2,0.1-0.3,0.1c0,2,0,3.9,0,6
		c-1.3,0-2.4,0-3.7,0c0-1.8,0-3.7,0-5.5c0-0.2,0.2-0.3,0.2-0.5c0.1-0.3,0.4-0.9,0.3-1c-0.9-0.6-0.5-1.5-0.5-2.2
		c0-0.6-0.4-1.4,0.5-1.9c0.4-0.2-0.2-2.4-0.4-2.9c-0.2-0.5-0.2-1.4,0.1-1.7c0.8-0.9,0.8-0.8,1.6-0.2c0.2,0.2,0.8-0.1,1.2-0.2
		c0.1,0,0.2-0.2,0.6-0.5c0,1.4,0,2.4,0,3.5c0,0.1-0.1,0.3-0.3,0.3c-0.6,0.4-0.5,0.8-0.1,1.2c0.2,0.3,0.2,0.7,0.2,1.1
		c0,0.2-0.3,0.4-0.5,0.6c0.4,0.3,0.8,0.5,1.2,0.7c0.1,0.1,0.4,0,0.6-0.1c0.1-0.1,0.3-0.3,0.4-0.4c-0.2,0-0.5,0-0.7-0.1
		c-0.1-0.1-0.1-0.3-0.2-0.5c0.8-0.1,0.4-0.8,0.5-1.2c0.3-0.9,0.7-1.9,1.5-2.5c0.1-0.1,0.3-0.2,0.3-0.4c0.3-1.2,1.3-2,2.5-2
		C44.1,150.2,44.9,150.2,45.8,150.2z"/>
	<path class="st0" d="M36.5,153.8c0-0.4,0-0.8,0-1.1c-0.4,0-0.8,0-1.1,0c0,0.4,0,0.7,0,1.1C35.8,153.8,36.1,153.8,36.5,153.8z"/>
	<path class="st0" d="M23.1,169.9c0.3,0.1,0.8,0.3,1.4,0.3c2.1,0,4.2,0,6.4,0c0.3,0,0.6-0.3,0.9-0.4c0.3-0.1,0.8-0.2,1-0.1
		c0.3,0.2,0.5,0.6,0.9,1c-0.5,0.1-0.9,0.1-1.3,0.2c0,0.3,0,0.7,0,1.1c0.8,0,1.6,0,2.3,0c0,0.1,0,0.3,0.1,0.4
		c-0.3,0.1-0.5,0.2-0.8,0.2c-1.7,0-3.4,0-5,0c-0.3,0-0.6,0.4-0.9,0.4c-0.4,0.1-0.9,0.1-1.1-0.1c-0.6-0.5-1.4-0.5-1.9,0
		c-0.2,0.2-0.4,0.3-0.7,0.3c-5,0-10,0-15.1,0c-0.2,0-0.4-0.3-0.7-0.4c-0.4-0.1-0.8-0.1-1.2-0.1c-0.3,0.1-0.7,0.4-1,0.4
		c-1.3,0.1-2.6,0-3.8,0c-0.9,0.1-1.5-0.2-1.8-0.9c-0.3-0.7,0.1-2.3,0.6-2.6c0.2-0.1,0.5-0.1,0.7-0.1c1.1,0,2.2,0,3.3,0
		c0.5,0,1.1-0.3,1.5,0.5c0.1,0.2,1.2,0.5,1.7-0.3c0.1-0.2,0.8-0.3,1-0.1c1,0.7,2.9,0.7,3.8,0c0.2-0.1,0.4-0.1,0.7-0.1
		c2.1,0,4.2,0,6.4,0c0.3,0,0.5,0.4,0.8,0.4C22,170,22.5,169.9,23.1,169.9z"/>
	<path class="st0" d="M99.6,166.2c0.1-0.1,0.3-0.2,0.4-0.3c0.4-0.5,1.1-0.9,0.9-1.7c0-0.2,0.3-0.5,0.4-0.7c0.5-0.8,0.9-1.7,1.4-2.5
		c0.3-0.6,0.8-1.1,1-1.7c0.2-0.8,0.3-1.7,0-2.3c-0.3-0.8-1-1.4-1-2.4c0-0.2-0.2-0.5-0.4-0.7c-0.8-1-1.6-2.1-1.3-3.6
		c0.8,0,1.7-0.1,2.5,0c0.4,0.1,0.9,0.4,1,0.8c0.3,0.9,0.5,1.8,0.7,2.7c1.2,0.2,1.8-0.3,1.8-1.4c0-0.9,1.2-2.1,2.1-2.1
		c0.7,0,1.3,0,2,0c0.5,1-0.3,1.3-0.7,1.8c-0.1,0.1-0.3,0.2-0.3,0.3c0.4,1-0.5,1.6-0.7,2.4c-0.2,0.8-0.8,1.5-1.4,2.2
		c-0.4,0.5-0.6,1.4-0.1,1.9c0.1,0.1,0.2,0.1,0.3,0.3c0.4,1.1,0.8,2.1,1.3,3.2c0.1,0.1,0.4,0.1,0.5,0.3c0.5,0.8,0.9,1.7,1.3,2.6
		c0.2,0.5,0.5,0.9,0.9,1.5c-1.5,0-2.6,0-3.7,0c-0.8-1.6-1.5-3.1-2.3-4.8c-0.2,0.2-0.8,0.4-0.9,0.7c-0.1,0.5-0.2,1-0.7,1.4
		c-0.3,0.3-0.4,0.9-0.7,1.3c-0.2,0.4-0.5,0.8-0.9,1.4c-0.9,0-2,0-3.2,0C99.7,166.4,99.6,166.3,99.6,166.2z"/>
	<path class="st0" d="M21.4,125.3c-1.1,0-2,0-3,0c0-0.4,0-0.8,0-1.2c0-7.8,0-35.7,0-43.5c0-0.9,0.3-1.5,1-2c0.1-0.1,0.2-0.2,0.3-0.2
		c-1.1-0.7,0.5-1.4-0.1-2.1c-0.3,0-0.6-0.1-1.1-0.1c0-1.1-0.1-2.1,0-3.1c0-0.3,0.3-0.8,0.6-0.9c0.7-0.4,1.5-0.6,2.2-0.8
		c0.1,0.1,0.1,0.2,0.2,0.3c-0.4,0.5-0.9,0.9-1.4,1.5c0.5,0.1,0.9,0.1,1.6,0.2c-0.3,0.5-0.6,0.8-0.7,1.2c-0.1,0.3-0.1,0.8,0,1.1
		c0.1,0.4,0.4,0.7,0.6,1.1c-0.1,0.1-0.2,0.2-0.4,0.2c-0.3-0.2-0.6-0.5-0.8-0.7c-0.1,0.1-0.2,0.1-0.3,0.2c0.2,0.4,0.5,0.7,0.7,1.1
		c0.3,0.7,0.7,1.5,0.7,2.2c0,8.1,0,36.3,0,44.4C21.4,124.5,21.4,124.9,21.4,125.3z"/>
	<path class="st0" d="M8.7,150.2c0.9,0,1.8-0.1,2.6,0c0.4,0.1,0.8,0.5,1,0.9c0.1,0.2-0.4,0.6-0.4,0.9c0,0.5,0.1,1,0.1,1.5
		c0.1,0,0.2,0,0.3,0.1c-0.2,0.2-0.4,0.3-0.7,0.5c1.2,0.8,1,2.3,0.6,3c-1.1,2.1-0.1,4.1-0.5,6.1c-0.1,0.6-0.3,1.2-0.6,1.7
		c-0.3,0.6-1,0.7-1.4,1.1c-0.9,0.7-1.8,0.3-2.7,0.5c-1.4,0.3-2.3-0.6-3.1-1.4c-0.5-0.5-0.9-1.2-1.2-1.9c-0.4-0.7,0.4-1.2,0.7-1.4
		c0.4-0.2,1.1,0,1.6,0.2c0.8,0.4,1,1.6,2.2,1.5c0.9-0.1,1.4-0.6,1.4-1.5c0-3.6,0-7.1,0-10.7C8.7,151,8.7,150.6,8.7,150.2z"/>
	<path class="st0" d="M5.1,81.7c0.3-0.4,0.6-0.8,0.9-1.2c0.3,0.2,0.6,0.5,0.9,0.7c0,0-0.3,0.3-0.3,0.5c-0.1,0.4-0.2,1-0.1,1
		c0.8,0.3,0.5,0.9,0.5,1.4c0,6.6,0,33.3,0,39.9c0,0.4,0,0.7,0,1.2c-1,0-1.9,0-3,0c0-0.3,0-0.7,0-1.1c0-6.1,0-32.2,0-38.3
		c0-0.7,0.6-1.9,1.2-2.5c0.1-0.1,0-0.3,0-0.5C5.1,82.5,5.1,82.1,5.1,81.7z"/>
	<path class="st0" d="M70.6,136.8c1.5,0,2.9-0.1,4.3,0c0.6,0.1,1.1,0.6,1.7,0.9c0.2,0.1,0.4,0.2,0.6,0.2c0.7,0.1,1.1,0.5,1.2,1.2
		c0.1,0.4,0.4,0.8,0.6,1.3c0.2,0.4-0.3,1,0.5,1.3c0.1,0-0.1,1.1-0.2,1.7c0,0.1-0.2,0.2-0.3,0.4c-0.4,0.8-0.8,1.6-1.2,2.4
		c-0.1,0.1-0.3,0.2-0.4,0.3c-0.8,0.1-1.4,1-2.4,0.6c-0.7,1.1-1.8,0.5-2.7,0.5c-0.5,0-1.1-0.5-1.7-0.8
		C70.6,143.7,70.6,140.3,70.6,136.8z M73,145.3c0.9,0,1.6,0,2.3,0c0.2,0,0.5-0.3,0.7-0.4c1.4-0.6,1.1-1.9,1.2-3.1
		c0.1-0.9-0.3-1.5-1-1.9c-0.6-0.4-1.2-0.8-1.7-1.1c-0.5,0.2-1,0.5-1.6,0.7c0,0.2,0.1,0.7,0,1c-0.1,0.3-0.4,0.6-0.6,0.9
		c0,0.3,1.4,0.5,0.1,0.9c0,0,0,0.3,0.1,0.5c0.1,0.3,0.4,0.5,0.4,0.8C73,144.2,73,144.7,73,145.3z"/>
	<path class="st0" d="M46.2,86c0.1,1.1-0.3,1.6-1.2,1.8c-0.2,0-0.3,0.2-0.5,0.3c0.2,0.1,0.3,0.2,0.5,0.2c0.4,0,0.8,0,1.3,0
		c0,1.7,0,23.4,0,25c0,0.1-0.2,0.3-0.3,0.4c-0.1,0.4-0.2,1.1-0.2,1.1c0.8,0.2,0.5,0.9,0.5,1.3c0,2.5,0,5,0,7.6c0,0.9-0.2,1.6-1,2.2
		c-0.6-1.3-1.3-0.5-2,0.1c0-7,0-33.8,0-40.7c0.4,0,0.7,0,1.2,0c-0.3,0.4-0.7,0.8-0.6,1c0.2,0.3,0.6,0.6,1.1,0.9
		c0.1-0.5,0.1-0.9,0.1-1.3C45.5,86,45.9,86,46.2,86z"/>
	<path class="st0" d="M21.8,55.2c-0.2,0.8-0.3,1.5-0.5,2.2c-0.5-0.2-1-0.4-1.5-0.6c-0.1,0.1-0.1,0.2-0.2,0.3
		c0.2,0.3,0.5,0.5,0.8,0.9c-0.8,0-1.3,0-1.9,0c-0.3-1.3,0.3-3.8,1.1-4.5c-0.2-0.2-0.4-0.3-0.5-0.4c0.4-0.9,0.7-1.8,1.1-2.6
		c0.1-0.2,0.4-0.3,0.6-0.5c0.7-0.8,0.9-1.9,1.8-2.5c0.8-0.5,1.7-1,2.5-1.5c0.6-0.4,1.2-0.7,1.8-1c0.2-0.1,0.6-0.1,0.8-0.2
		c0.8-0.2,1.7,0.5,2.4-0.6c0.2-0.4,1.5,0.4,1.5,0.9c0,0.8,0.4,1.8-0.6,2.4c-0.2,0.1-0.4,0.3-0.6,0.3c-0.9,0.2-2-0.5-2.7,0.6
		c0,0-0.1,0-0.1,0c-1.7-0.3-2.2,1.3-3.3,2.1c-0.6,0.4-1,1-1.4,1.5c-0.5,0.7-0.8,1.6-1.6,2.2C21.4,54.2,21.7,54.9,21.8,55.2z"/>
	<path class="st0" d="M53,137.3c0,0.8,0,1.3,0,1.9c0,0.5-0.2,1,0.5,1.4c0.3,0.2,0.1,1.2,0.1,1.8c0,0.4-0.3,1,0.5,1.1
		c0.1,0,0,0.6,0.1,0.8c0.2,0.7-0.6,1.7,0.6,2.3c-0.2,0.3-0.4,0.8-0.7,1c-0.3,0.1-0.8,0-1-0.1c-0.6-0.4-0.8-1-0.6-1.7
		c0.2-0.9,0-1.7-1.1-2.3c-0.2,0.5-0.5,1-0.8,1.5c-0.5,0.8-1,1.5-1.4,2.2c-0.6-1-1.1-1.8-1.5-2.6c-0.2-0.5-0.1-1.1-0.1-1.6
		c-0.1,0-0.2-0.1-0.3-0.1c-0.3,0.5-0.7,1-0.8,1.5c-0.2,0.7,0,1.4-0.1,2.1c-0.1,0.4-0.5,0.8-0.9,1.3c-0.3,0-0.8,0-1.5,0
		c0.3-0.8-0.6-1.8,0.6-2.5c0.1,0,0-0.2,0.1-0.3c0.1-0.8-0.2-1.6,0.5-2.3c0.3-0.3,0-1.2,0.1-1.9c0.1-0.6-0.3-1.2,0.5-1.6
		c0.3-0.2,0.1-1,0.2-1.6c0.2,0,0.4,0,0.4,0.1c0.3,0.7,0.5,1.4,0.7,2c0.1,0.2,0.4,0.2,0.5,0.4c0.5,0.9,1.1,1.8,1.7,2.9
		c0.1,0,0.4,0,0.6,0c0.5-1,1-2,1.5-2.9C51.6,139,51.8,137.9,53,137.3z"/>
	<path class="st0" d="M92.4,136.8c1.3,0,2.6-0.3,3.6,0.1c1.2,0.4,2.7,0.6,3.5,1.8c0.1,0.2,0,0.5,0.1,0.7c0.1,0.5,0.2,0.9,0.4,1.5
		c-0.4,0.8-1,1.9-1.5,2.9c0.5,0.7,1.2,1.5,1.7,2.3c0.4,0.7-0.4,1.1-0.7,1.5c-0.1,0.2-0.8,0.4-1.1-0.3c-0.2-0.3-0.5-0.6-0.5-1.1
		c0-1.1-0.5-1.5-1.5-1.5c-0.5,0-0.9,0-1.2,0c-0.3,0.6-0.5,1.1-0.8,1.6c0.1,0.1,0.3,0.3,0.4,0.3c-0.3,0.4-0.4,0.8-0.8,1
		c-0.5,0.3-1.5-0.5-1.5-1.1C92.4,143.4,92.4,140.2,92.4,136.8z M94.9,143.1c1-0.3,1.9-0.6,2.9-0.9c-0.2-0.9,0.4-1.9-0.6-2.6
		c-0.3-0.2-1-0.2-1.1-0.4c-0.3-0.7-0.9-0.7-1.2-0.4c-0.4,0.4-1.1,0.7-0.8,1.5C94.4,141.1,94.6,141.9,94.9,143.1z"/>
	<path class="st0" d="M6.9,78.5c-0.8-0.2-1.5-0.2-2.1-0.5c-0.4-0.2-0.8-0.8-0.9-1.2c-0.1-1-0.2-2,0-2.9c0.1-0.7,0.6-1.3,1-1.9
		c0.1-0.1,0.2-0.3,0.2-0.4c-0.4-1.3,0.8-1.8,1.4-2.6c0.6-0.8,1.7-0.9,2.5-1.8c0.5-0.5,1.8-0.2,2.4-0.8c1.2-1.1,2.6-0.2,3.9-0.6
		c0,1.1,0,2,0,3.1c-0.4,0-0.8-0.1-1.2,0c-0.6,0.1-1.2,0.1-1.9,0.4c-0.8,0.4-1.6,0.8-2.5,1.3c-0.8,0.5-1.4,0.6-1.6,1.7
		c-0.1,0.6-0.7,1-1,1.5c-0.1,0.2-0.1,0.5-0.1,0.8C6.9,76,6.9,77.3,6.9,78.5z"/>
	<path class="st0" d="M109.9,141.6c0-1.5,0-3.1,0-4.7c1.2-0.2,1.8,0.3,1.8,1.4c0,2.7,0,5.4,0,8c-1,0.5-1.4-0.2-1.8-0.7
		c-0.7-0.7-1.2-1.6-1.8-2.4c-0.6-0.7-1.2-1.4-1.9-2.1c-0.2-0.2-0.7-0.1-1.1-0.1c0,1.6-0.1,3,0,4.5c0,0.9-0.1,1.6-0.9,2.2
		c-0.8-0.5-1-1.3-0.9-2.2c0.1-2.6,0-5.1,0-7.7c0-0.3,0-0.7,0-0.9c1.6-0.7,2.2,0.6,3,1.3c0.5,0.5,0.8,1.2,1.2,1.9
		c0.1,0.1,0.1,0.2,0.1,0.2c1-0.1,1.4,0.7,2,1.2C109.7,141.7,109.8,141.6,109.9,141.6z"/>
	<path class="st0" d="M84.5,139.2c0,0.5,0,0.8,0,1.2c1.4,0,2.7,0,4.2,0c0,0.8,0,1.6,0,2.4c-1.3,0-2.7,0-4.1,0c0,0.9,0,1.6,0,2.4
		c1.4,0,2.7,0,4.1,0c0,0.7,0,1.2,0,1.8c-0.1,0-0.2,0.1-0.2,0c-0.4-0.6-0.8-0.6-1.2,0c-0.7,1.1-1.8,0.6-2.7,0.6
		c-1.4,0.1-1.8-0.3-1.8-1.8c0-3,0-6,0-9.1c2,0,4,0,6,0c0,0.7,0,1.5,0,2.3C87.3,139.2,86,139.2,84.5,139.2z"/>
	<path class="st0" d="M31.7,136.8c0,0.9,0,1.6,0,2.6c-1.2-0.3-2.4-0.5-3.3-0.7c-0.3,0.5-0.7,0.9-0.9,1.3c-0.3,0.7,0.3,1.2,0.7,1.5
		c0.2,0.2,0.9-0.1,1.4-0.2c0.4,0.1,1,0.1,1.5,0.4c0.6,0.3,1.1,0.8,1.6,1.2c0.4,0.3,0.1,2.6-0.2,3c-0.7,1-1.6,1.4-2.8,1.2
		c-0.1,0-0.4,0-0.4,0.1c-0.6,1.1-1.1,0.3-1.5-0.1c-0.8,0.8-1.4,0.8-2-0.1c-0.1-0.2-0.2-0.7-0.1-0.9c0.3-0.4,0.7-0.8,1.1-0.8
		c0.9-0.1,1.8,0,2.7,0c1.2,0,1.6-0.5,1.6-1.9c-1.2-0.2-2.6-0.2-3.8-0.5c-0.6-0.1-1-0.8-1.5-1.2c-0.4-0.3,0-2.6,0.2-3
		c0.5-1,1.6-1,2.2-1.7c0.1-0.1,0.3-0.1,0.4-0.1C29.6,136.8,30.6,136.8,31.7,136.8z"/>
	<path class="st0" d="M100.3,27.8c1.1-0.1,1.9,0.6,1.7,1.3c-0.1,0.3-0.4,0.7-0.7,0.9c-0.9,0.9-1.9,1.7-2.8,2.6
		c-0.4,0.4-0.5,1.1-0.8,1.5c-1,1.1-2.2,2.2-3.2,3.3c-0.6,0.7-1.6,1-1.7,2.2c0,0.4-0.7,0.9-1.2,1.3c-0.5,0.5-1,0.9-1.4,1.4
		c-0.8,0.9-1.8,0.6-3.1,0.6c0.4-0.7,0.6-1.3,0.9-1.7c1.9-1.9,3.9-3.7,5.8-5.6c0.4-0.4,0.4-1.1,0.8-1.5c1-1.1,2.1-2.2,3.2-3.3
		c0.7-0.7,1.4-1.2,2.1-1.9C100.3,28.7,100.3,28.2,100.3,27.8z"/>
	<path class="st0" d="M3.9,44.1c-0.1-1.2,0.4-2,1.2-1.8c0.6,0.2,1.2,0.7,1.8,1c0.5,0.2,0.7,1,1.4,0.8c0.1,0,0.3,0.3,0.5,0.5
		c0.7,0.7,1.9,0.8,2.5,1.8c0.3,0.4,1.3,0.4,1.9,0.7c0.2,0.1,0.4,0.4,0.5,0.6c0.6,0.8,1.8,0.7,2.4,1.7c0.1,0.2,1,0.2,1.4,0.7
		c0.1,0.3,0.3,0.6,0.2,0.8c-0.2,0.4-0.5,0.7-0.9,0.9c-0.2,0.1-0.6-0.1-0.9-0.3c-0.5-0.3-0.7-1.1-1.5-0.9c-0.2,0-0.5-0.3-0.6-0.6
		c-0.6-0.8-1.9-0.6-2.2-1.7c-1.2,0.3-1.5-1.2-2.6-1.4c-0.6-0.1-1.6-0.7-2.2-1.4c-0.5-0.5-1.4-0.8-2-1.5C4.6,44,4.3,44.1,3.9,44.1z"
		/>
	<path class="st0" d="M109,41.4c-0.7,0.6-1.4,1.2-2.1,1.8c-0.1,0.1-0.2,0.3-0.3,0.3c-1.1-0.2-1.3,1.1-2.1,1.4
		c-0.3,0.1-0.5,0.3-0.8,0.5c-0.2,0.2-0.4,0.4-0.6,0.6c-0.7,0.7-2,0.7-2.4,1.8c-1.3-0.3-1.4,1.6-2.7,1.3c0,0-0.1,0.3-0.2,0.4
		c-0.3,0.3-0.7,0.5-1,0.8c-0.3-0.5-0.7-0.9-0.7-1.4c0-0.3,0.5-0.7,0.8-1c0.8-0.6,1.8-1.1,2.5-1.9c0.7-0.7,1.9-0.6,2.2-1.7
		c1.2,0.3,1.4-1.5,2.7-1.4c0.3,0,0.7-0.8,1.1-1.1c0.6-0.5,1.4-0.7,1.9-1.3c0.4-0.4,0.9-0.8,1.3-0.5c0.4,0.3,0.6,1,0.9,1.5
		C109.4,41.4,109.2,41.4,109,41.4z"/>
	<path class="st0" d="M34.8,139.2c0-0.8,0-1.5,0-2.6c0.5,0.3,0.9,0.7,1.2,0.7c0.8,0,1.6-0.1,2.4-0.2c0.2,0,0.4-0.2,0.6-0.2
		c0.8,0,1.5,0,2.4,0c0,0.8,0,1.5,0,2.4c-0.7,0-1.5,0-2.3,0c0,2.9,0,5.6,0,8.4c-1.3,0.2-1.8-0.3-1.8-1.4c0-2.3,0-4.6,0-7
		C36.4,139.2,35.6,139.2,34.8,139.2z"/>
	<path class="st0" d="M111.7,53.2c0.2,0.9,0.2,1.7-0.5,2.2c0,0,0,0.1-0.1,0.2c-0.7,0.2-1.5,0.4-2.2,0.7c-0.7,0.3-1.3,0.6-1.9,1
		c-0.1,0.1-0.3,0.2-0.4,0.2c-0.8,0.2-1.8,0.2-2.3,0.7c-0.6,0.5-1.2,0.4-1.8,0.6c-0.6,0.2-1,0.7-1.6,1c-0.7,0.3-1.5,0.6-2.3,0.9
		c0-1,0-1.7,0-2.5c0.9-0.2,2-0.3,2.8-0.7c0.9-0.6,1.8-1.1,2.9-1.2c0.5,0,1-0.7,1.6-1c0.1-0.1,0.2-0.2,0.2-0.1
		c0.9,0.4,1.9-0.3,2.3-0.7c0.7-0.8,1.9,0,2.4-1.1C110.8,53.1,111.3,53.2,111.7,53.2z"/>
	<path class="st0" d="M88.4,20.9c0.8,0.3,1.5,0.6,2.4,0.9c-1.1,1-1.7,2.1-2,3.2c-0.1,0.2-0.4,0.3-0.6,0.5c-0.4,0.8-0.8,1.7-1.3,2.5
		c-0.1,0.2-0.4,0.3-0.6,0.5c-0.4,0.8-0.8,1.7-1.3,2.5c-0.1,0.2-0.4,0.3-0.6,0.5c-0.5,0.9-1,1.8-1.5,2.7c-0.3-0.1-1.2-1.8-0.9-2.2
		c0.7-0.7,0.9-1.5,1.2-2.3c0.2-0.6,1-1,1-1.5c0-1.2,1.4-1.5,1.4-2.7c0-0.5,0.9-1,0.9-1.6c0-1.3,1.7-1.6,1.5-2.9
		C88.2,21,88.3,21,88.4,20.9z"/>
	<path class="st0" d="M16,61.4c0,0.1,0,0.4,0,1.1c-0.5-0.3-0.9-0.6-1.3-0.7c-0.7-0.3-1.5-0.5-2.2-0.7c-0.5-0.1-1.2,0.3-1.5-0.6
		c0-0.1-0.3,0-0.5-0.1c-0.5-0.1-1.1,0.3-1.3-0.5c0,0-0.1,0-0.1-0.1c-0.9-0.2-1.9-0.4-2.8-0.7c-0.7-0.2-1.3-0.6-1.9-1
		c-0.2-0.1-0.4-0.2-0.6-0.2c-1.7-0.1-2-0.5-1.7-2.4c0.6,0.2,1.3-0.4,1.9,0.5c0.4,0.5,1.5,0.3,2.2,0.8c0.8,0.5,1.8,0.3,2.6,1
		c0.5,0.4,1.3,0.5,2,0.8c0.4,0.1,0.9-0.3,1,0.5c0,0.1,0.2,0.1,0.3,0.1c1.3-0.4,1.7,0.8,2.5,1.3C15.1,60.8,15.4,61,16,61.4z"/>
	<path class="st0" d="M23.9,25.6c0.7-0.3,1.2-0.6,1.7-0.8c0.4,1.1,0.7,2.3,1.8,3c0.4,0.3,0.4,1.1,0.8,1.4c0.7,0.7,0.6,1.9,1.7,2.3
		c-0.3,1.2,1.4,1.4,1.4,2.7c0,0.5,0.7,1,1,1.5c0.1,0.1,0.1,0.3,0.1,0.5c0,0.8,0,1.6,0,2.7c-0.5-0.5-1.1-0.8-1.1-1.2
		c0-0.8-0.7-1-1-1.5c-0.4-0.8-1-1.4-1.4-2.2c-0.2-0.3-0.4-0.7-0.6-1.1c-0.5-0.8-0.7-1.8-1.3-2.4c-0.6-0.7-0.8-1.6-1.5-2.2
		c-0.5-0.5-0.9-1.4-1.5-2C23.8,26.1,23.9,25.7,23.9,25.6z"/>
	<path class="st0" d="M16.6,35c0.8,0.2,1.8,1.4,1.9,2.4c1.5-0.1,2,1.4,2.9,2.1c1.3,1.1,2.4,2.4,3.6,3.6c0.1,0.1,0,0.2,0,0.3
		c-0.5,0.2-1,0.4-1.7,0.7c-2-2.1-4.1-4.3-6.3-6.5c-0.4-0.4-0.8-0.8-1.1-1.3C16.2,35.8,16.4,35.4,16.6,35z"/>
	<path class="st0" d="M60.2,125.3c0-0.7,0-1.3,0-1.9c0-0.2,0.3-0.3,0.3-0.5c0.1-0.4,0.2-1,0-1.2c-0.8-0.8-0.3-2.6,0.8-3
		c0,0.4,0.1,0.8,0.2,1.5c0.3-0.4,0.5-0.7,0.7-0.8c0.3-0.1,0.6,0,1.2,0c-0.2,0.6-0.4,1-0.6,1.6c0.9,0.5,0.3,1.6,0.4,2.5
		c0.1,0.6,0,1.3,0,1.9C62.2,125.3,61.3,125.3,60.2,125.3z"/>
	<path class="st0" d="M16.6,35c-0.2,0.4-0.4,0.8-0.6,1.3c-0.5-0.4-1.1-0.8-1.6-1.3c-0.7-0.7-1.2-1.6-2-2.2c-0.8-0.6-0.5-1.3-0.5-1.9
		c0.1-0.1,0.1-0.2,0.2-0.3c0.5,0.3,1.1,0.5,1.5,0.9c1.1,1,2,2,3,3C16.6,34.6,16.6,34.8,16.6,35z"/>
	<path class="st0" d="M18.4,66.6c0.7,0,1.2,0,2,0c-0.7,0.7-1.3,1.3-2,2c0-0.5-0.1-0.6-0.1-0.8C18.4,67.4,18.4,67,18.4,66.6z"/>
	<path class="st0" d="M61.4,92c0,0.8,0,21.6,0,22.3c-0.8-0.2-1-0.7-0.6-1.3c0.1-0.2,0-20.5,0.1-20.7c0.1-0.2,0.2-0.3,0.3-0.5
		C61.2,92,61.3,92,61.4,92z"/>
	<path class="st0" d="M109.3,130.8c0.3,0.2,0.6,0.4,0.9,0.6c0.3,0.3,0.6,0.7,1,1C109.8,132.8,109.3,132.3,109.3,130.8
		C109.3,130.8,109.3,130.8,109.3,130.8z"/>
	<path class="st0" d="M6.9,79.8c-0.8,0-1.6,0-2.4,0c0.3-0.8,0.7-1,1.3-0.6c0.2,0.1,0.5,0,0.7,0.1c0.2,0.1,0.3,0.2,0.5,0.3
		C6.9,79.7,6.9,79.7,6.9,79.8z"/>
	<path class="st0" d="M5.1,81.7c0,0.4,0,0.8,0,1.2c-0.4,0-0.7,0-1.1,0c0-0.4,0-0.8,0-1.2C4.3,81.7,4.7,81.7,5.1,81.7z"/>
	<path class="st0" d="M20.3,59.3c0.3,0,0.7,0,1.3,0c-0.5,0.5-0.8,0.9-1.3,1.4C20.3,60.1,20.3,59.7,20.3,59.3z"/>
	<path class="st0" d="M68.7,30.7c0,0.5,0,0.8,0,1.4c-0.5-0.5-0.9-0.8-1.4-1.4C67.9,30.8,68.2,30.8,68.7,30.7z"/>
	<path class="st1" d="M94,77c0.2-0.3,0.3-0.5,0.5-0.8c0.1,0.3,0.2,0.6,0.2,0.9c0,0.3-0.2,0.6-0.3,0.8C94.3,77.7,94.2,77.4,94,77z"/>
	<g>
		<path class="st0" d="M7.5,138L7.5,138C7.5,138,7.5,138,7.5,138c0.1-1.1-1.5-0.2-1.5-1.2c-0.3,0-0.8,0-0.9,0.1
			c0,0.1-0.1,0.1-0.1,0.2c-0.5-0.1-0.9-0.3-1.3-0.3c0-0.1,0-0.1,0-0.1c0,0-0.1,0.1-0.1,0.1c-0.2,0-0.4,0.2-0.5,0.2l-1.2,2.2
			c0,2.4,0,4.7,0,7c0,1.1,0.6,1.6,1.8,1.4c0-1.6,0-3.2,0-4.8c0.6,0.4,1.5,0.7,2.1,0.5c-0.5-0.8-1.2-1.1-2.1-1c0-1,0-1.9,0-2.9
			c0-0.1,0.1-0.1,0.1-0.2c0.4,0,0.7-0.3,1-0.6c0.6,0.2,1.3-1,1.9,0c0.1-0.1,0.1-0.2,0.2-0.3C7.1,138.2,7.3,138.1,7.5,138
			C7.5,138,7.5,138.1,7.5,138C7.5,138.1,7.5,138.1,7.5,138C7.5,138,7.5,138,7.5,138C7.5,138,7.5,138,7.5,138z"/>
		<path class="st0" d="M9.9,139.9c-0.4,0-0.8,0-1.2,0c0,0,0,0,0,0l0,0l0,0l0,0c0,0,0,0,0,0c0-0.6,0-1.2,0-1.8c-0.4,0-0.8,0-1.1,0
			c0.3,0.6,0.5,1.2,0.8,1.8c0,0.1,0.2,0,0.4,0.1c0,0,0,0,0,0l0,0l0,0c0,0,0,0,0,0c0,0,0,0,0,0c0,0.2,0,0.4,0,0.4
			c-0.8,0.2-0.5,0.8-0.5,1.3c0.4,0,0.8,0,1.1,0c0-0.4,0-0.7,0.1-1c0.1-0.2,0.4-0.3,0.6-0.5C9.9,140,9.9,139.9,9.9,139.9z"/>
	</g>
	<path class="st2" d="M65.7,166.5c0-5.1,0-10.1,0-15.2c0-0.4,0.5-0.8,0.7-1.2c0.2,0.2,0.4,0.5,0.5,0.5c0.6,0,1.2-0.1,1.7-0.2
		c0.2,0,0.5-0.3,0.6-0.3c0.8,0.8,1.5,0,2.3,0c1.3,0,2.3,0.6,3.1,1.4c0.7,0.7,1.3,1.5,1.8,2.4c0.2,0.4-0.1,1.1-0.3,1.6
		c-0.2,0.9-1.1,1.7-0.8,2.7c0,0.1,0.2,0.2,0.3,0.3c0.6,0.5,1,1,0.9,1.9c-0.1,0.7,0,1.5,0,2.2c0,1.3-0.8,2.2-2.1,2.6
		c-0.4,0.1-0.6,0.6-1,0.9c-0.1,0.1-0.3,0.3-0.5,0.3C70.7,166.5,68.2,166.5,65.7,166.5z M71.5,163.5c0.5,0,2-1.1,2.1-1.5
		c0.4-1.1-0.4-2.1-1.6-2.1c-0.6,0-1.3,0-1.9-0.1c-0.2,0-0.4-0.3-0.5-0.5c-0.3,0.4-0.7,0.8-0.7,1.2c-0.1,1,0,1.9,0,3
		C69.7,163.5,70.6,163.5,71.5,163.5z M72.9,154.3c-0.1-0.4-0.6-1-1-1.1c-1-0.2-2.1-0.1-3.2-0.1c0,0.8,0,1.5,0,2.1
		c0,1,0.5,1.6,1.6,1.5c0.9-0.1,1.7-0.4,2.7-0.6C73,155.5,73.1,154.9,72.9,154.3z"/>
	<path class="st0" d="M92.3,163.6c-0.8,0.9-1.7,1.8-2.4,2.8c-0.7,1.1-1.8,1.1-2.7,0.8c-1.2-0.4-2.2-1.2-3.2-2.1
		c-0.8-0.7-1.4-1.6-2.1-2.4c-0.3-0.4-0.6-0.8-0.7-1.2c-0.1-1.1,0.2-2.3-0.1-3.4c-0.5-2.2,0.9-3.4,2.2-4.7c1.1-1,2.3-1.8,3.5-2.7
		c0.6-0.5,3.7,0.2,4.6,0.6c0.7,0.3,1.6,0.3,2.2,1.1c0.6,0.8,1.5,1.3,2.1,2c0.1,0.1-0.1,0.6-0.3,0.7c-0.3,0.2-0.7,0.1-1.1,0.2
		c0.2,0.2,0.4,0.5,0.6,0.7c0.5,0.1,1.1,0.1,1.6,0.2c0.8,1.4-0.5,1.9-1.1,2.7c-0.2,0.2-0.4,0.7-0.3,0.8c1,1.2,1,1.6,0,3
		c-0.3,0.4-0.2,1-0.3,1.9c-0.7-0.4-1.2-0.7-1.8-1C92.8,163.6,92.5,163.7,92.3,163.6c0.3-0.5,0.7-1,0.9-1.5c0.2-0.8-0.4-1.9,0.9-2.4
		c0.1-0.1,0.1-1.3-0.1-1.4c-1-0.2-0.7-0.9-0.8-1.5c-0.1-0.7-2.4-2.2-3.1-2.3c-1.9-0.3-3.4,0.6-4.8,1.1c-0.5,1-1,1.8-1.2,2.7
		c-0.2,1.2,0.1,2.3,0.8,3.5c0.6,1,0.9,1.9,2.3,2c1,0,2,0.3,2.9,0.5C90.8,163.9,91.5,163.7,92.3,163.6z"/>
</g>
<g id="Layer_2">
</g>
<g id="Layer_3">
</g>
</svg>
